<svg width="80" height="80" fill="none" xmlns="http://www.w3.org/2000/svg"><path d="M80 40C80 17.906 62.094 0 40 0S0 17.906 0 40c0 19.969 14.625 36.516 33.75 39.516V51.562H23.594V40H33.75v-8.813c0-10.023 5.969-15.562 15.11-15.562 4.374 0 8.953.781 8.953.781v9.844h-5.047c-4.97 0-6.516 3.086-6.516 6.25V40h11.094L55.57 51.563h-9.32v27.953C65.375 76.516 80 59.969 80 40Z" fill="#1877F2"/><path d="M55.57 51.563 57.344 40H46.25v-7.5c0-3.164 1.547-6.25 6.516-6.25h5.046v-9.844s-4.578-.781-8.953-.781c-9.14 0-15.109 5.539-15.109 15.563V40H23.594v11.563H33.75v27.953c2.039.32 4.125.484 6.25.484s4.211-.164 6.25-.484V51.562h9.32Z" fill="#fff"/></svg>