<svg width="80" height="80" fill="none" xmlns="http://www.w3.org/2000/svg"><path d="M0 40C0 17.909 17.909 0 40 0s40 17.909 40 40-17.909 40-40 40S0 62.091 0 40Z" fill="#fff"/><path d="M57.45 55.383H22.5a2.504 2.504 0 0 1-2.496-2.496V27.639a2.504 2.504 0 0 1 2.497-2.496H57.45a2.504 2.504 0 0 1 2.496 2.496v25.248a2.481 2.481 0 0 1-2.496 2.496Z" fill="#E3E3E3"/><path opacity=".1" d="M24.998 55.383 39.94 43.366l.107-.642-15.406-11.09-.035 23.215.392.534Z" fill="#231F20"/><path d="M22.502 55.383a2.48 2.48 0 0 1-2.497-2.496V27.603c0-1.39 1.106-1.64 2.497-1.64 1.39 0 2.496.285 2.496 1.64v27.78H22.5Z" fill="#D54B3D"/><path fill-rule="evenodd" clip-rule="evenodd" d="M20.005 27.603c0-1.355 1.106-1.64 2.497-1.64 1.39 0 2.496.25 2.496 1.64v27.78H22.5a2.48 2.48 0 0 1-2.496-2.496V27.603Zm4.636 0c0-.749-.356-1.284-2.14-1.284-1.783 0-2.14.5-2.14 1.284v25.284c0 1.177.964 2.14 2.14 2.14h2.14V27.603Z" fill="#D72B27"/><path d="M57.45 55.383h-2.497v-27.85c0-1.392 1.106-1.57 2.496-1.57 1.391 0 2.497.178 2.497 1.57v25.39c0 1.355-1.106 2.46-2.496 2.46Z" fill="#D54B3D"/><path fill-rule="evenodd" clip-rule="evenodd" d="M54.953 27.532c0-1.39 1.106-1.57 2.496-1.57 1.391 0 2.497.18 2.497 1.57v25.39a2.48 2.48 0 0 1-2.496 2.497h-2.497V27.532Zm4.636 0c0-.892-.535-1.212-2.14-1.212-1.604 0-2.14.285-2.14 1.212v27.53h2.14c1.177 0 2.14-.962 2.14-2.14v-25.39Z" fill="#D72B27"/><path d="M46.751 55.383 20.214 28.64l1.396.568L40.083 42.51l19.863-14.566v24.979c0 1.355-1.106 2.46-2.496 2.46H46.75Z" fill="url('#paint0_linear_350_192')"/><path d="M39.94 43.365 21.075 29.672c-1.105-.82-1.426-2.39-.606-3.495.82-1.106 2.425-1.355 3.566-.535l15.94 11.59 16.048-11.733c1.105-.82 2.675-.57 3.495.57.82 1.106.57 2.675-.57 3.496l-19.008 13.8Z" fill="#D54B3D"/><path fill-rule="evenodd" clip-rule="evenodd" d="M55.987 25.464c.428-.321.963-.464 1.462-.464.785 0 1.534.357 2.033 1.07a2.54 2.54 0 0 1-.57 3.495L39.94 43.4l-18.865-13.73c-1.105-.82-1.426-2.389-.642-3.494a2.567 2.567 0 0 1 2.069-1.034c.535 0 1.07.142 1.497.463l15.94 11.59 16.048-11.732Zm3.21.784a2.179 2.179 0 0 0-1.748-.891c-.463 0-.891.142-1.283.392L40.154 37.48l-.214.143-.214-.143L23.82 25.927a2.061 2.061 0 0 0-1.284-.428c-.713 0-1.39.357-1.783.892-.678.927-.428 2.282.535 2.995l18.65 13.552 18.794-13.694a2.19 2.19 0 0 0 .464-2.996Z" fill="#D72B27"/><defs><linearGradient id="paint0_linear_350_192" x1="20.216" y1="55.387" x2="59.959" y2="55.387" gradientUnits="userSpaceOnUse"><stop stop-opacity=".1"/><stop offset="1" stop-opacity=".2"/></linearGradient></defs></svg>