<svg width="80" height="80" fill="none" xmlns="http://www.w3.org/2000/svg"><path d="M0 40C0 17.909 17.909 0 40 0s40 17.909 40 40-17.909 40-40 40S0 62.091 0 40Z" fill="#fff"/><path d="M40 29.369c3.255 0 5.45 1.406 6.702 2.58l4.892-4.776C48.59 24.381 44.68 22.667 40 22.667c-6.78 0-12.634 3.89-15.484 9.552l5.604 4.353c1.406-4.18 5.296-7.203 9.88-7.203Z" fill="#EA4335"/><path d="M56.64 40.385c0-1.425-.116-2.465-.366-3.544H40v6.433h9.553c-.193 1.599-1.233 4.006-3.544 5.624l5.47 4.237c3.274-3.024 5.161-7.473 5.161-12.75Z" fill="#4285F4"/><path d="M30.14 43.428A10.668 10.668 0 0 1 29.56 40c0-1.194.212-2.35.559-3.428l-5.604-4.353A17.348 17.348 0 0 0 22.666 40c0 2.793.675 5.431 1.85 7.78l5.623-4.352Z" fill="#FBBC05"/><path d="M40 57.333c4.68 0 8.609-1.54 11.478-4.198l-5.47-4.237c-1.463 1.02-3.427 1.733-6.008 1.733-4.584 0-8.474-3.024-9.86-7.203l-5.605 4.353c2.85 5.662 8.686 9.552 15.465 9.552Z" fill="#34A853"/></svg>