<svg width="108" height="32" fill="none" xmlns="http://www.w3.org/2000/svg"><g opacity=".3" fill="#EE9591"><circle cx="105" cy="29" r="3" transform="rotate(-180 105 29)"/><circle cx="105" cy="16" r="3" transform="rotate(-180 105 16)"/><circle cx="105" cy="3" r="3" transform="rotate(-180 105 3)"/><circle cx="93" cy="29" r="3" transform="rotate(-180 93 29)"/><circle cx="93" cy="16" r="3" transform="rotate(-180 93 16)"/><circle cx="93" cy="3" r="3" transform="rotate(-180 93 3)"/><circle cx="80" cy="29" r="3" transform="rotate(-180 80 29)"/><circle cx="80" cy="16" r="3" transform="rotate(-180 80 16)"/><circle cx="80" cy="3" r="3" transform="rotate(-180 80 3)"/><circle cx="67" cy="29" r="3" transform="rotate(-180 67 29)"/><circle cx="67" cy="16" r="3" transform="rotate(-180 67 16)"/><circle cx="67" cy="3" r="3" transform="rotate(-180 67 3)"/><circle cx="54" cy="29" r="3" transform="rotate(-180 54 29)"/><circle cx="54" cy="16" r="3" transform="rotate(-180 54 16)"/><circle cx="54" cy="3" r="3" transform="rotate(-180 54 3)"/><circle cx="41" cy="29" r="3" transform="rotate(-180 41 29)"/><circle cx="41" cy="16" r="3" transform="rotate(-180 41 16)"/><circle cx="41" cy="3" r="3" transform="rotate(-180 41 3)"/><circle cx="28" cy="29" r="3" transform="rotate(-180 28 29)"/><circle cx="28" cy="16" r="3" transform="rotate(-180 28 16)"/><circle cx="28" cy="3" r="3" transform="rotate(-180 28 3)"/><circle cx="15" cy="29" r="3" transform="rotate(-180 15 29)"/><circle cx="15" cy="16" r="3" transform="rotate(-180 15 16)"/><circle cx="15" cy="3" r="3" transform="rotate(-180 15 3)"/><circle cx="3" cy="29" r="3" transform="rotate(-180 3 29)"/><circle cx="3" cy="16" r="3" transform="rotate(-180 3 16)"/><circle cx="3" cy="3" r="3" transform="rotate(-180 3 3)"/></g></svg>