<svg width="72" height="80" fill="none" xmlns="http://www.w3.org/2000/svg"><g opacity=".5" fill="#EE9591"><circle cx="2" cy="44" r="2"/><circle cx="2" cy="53" r="2"/><circle cx="2" cy="61" r="2"/><circle cx="2" cy="70" r="2"/><circle cx="2" cy="78" r="2"/><circle cx="10" cy="44" r="2"/><circle cx="10" cy="53" r="2"/><circle cx="10" cy="61" r="2"/><circle cx="10" cy="70" r="2"/><circle cx="10" cy="78" r="2"/><circle cx="19" cy="44" r="2"/><circle cx="19" cy="53" r="2"/><circle cx="19" cy="61" r="2"/><circle cx="19" cy="70" r="2"/><circle cx="19" cy="78" r="2"/><circle cx="27" cy="44" r="2"/><circle cx="27" cy="53" r="2"/><circle cx="27" cy="61" r="2"/><circle cx="27" cy="70" r="2"/><circle cx="27" cy="78" r="2"/><circle cx="36" cy="2" r="2"/><circle cx="36" cy="10" r="2"/><circle cx="36" cy="19" r="2"/><circle cx="36" cy="27" r="2"/><circle cx="36" cy="36" r="2"/><circle cx="36" cy="44" r="2"/><circle cx="36" cy="53" r="2"/><circle cx="36" cy="61" r="2"/><circle cx="36" cy="70" r="2"/><circle cx="36" cy="78" r="2"/><circle cx="44" cy="2" r="2"/><circle cx="44" cy="10" r="2"/><circle cx="44" cy="19" r="2"/><circle cx="44" cy="27" r="2"/><circle cx="44" cy="36" r="2"/><circle cx="44" cy="44" r="2"/><circle cx="44" cy="53" r="2"/><circle cx="44" cy="61" r="2"/><circle cx="44" cy="70" r="2"/><circle cx="44" cy="78" r="2"/><circle cx="53" cy="2" r="2"/><circle cx="53" cy="10" r="2"/><circle cx="53" cy="19" r="2"/><circle cx="53" cy="27" r="2"/><circle cx="53" cy="36" r="2"/><circle cx="53" cy="44" r="2"/><circle cx="53" cy="53" r="2"/><circle cx="53" cy="61" r="2"/><circle cx="53" cy="70" r="2"/><circle cx="53" cy="78" r="2"/><circle cx="61" cy="2" r="2"/><circle cx="61" cy="10" r="2"/><circle cx="61" cy="19" r="2"/><circle cx="61" cy="27" r="2"/><circle cx="61" cy="36" r="2"/><circle cx="61" cy="44" r="2"/><circle cx="61" cy="53" r="2"/><circle cx="61" cy="61" r="2"/><circle cx="61" cy="70" r="2"/><circle cx="61" cy="78" r="2"/><circle cx="70" cy="2" r="2"/><circle cx="70" cy="10" r="2"/><circle cx="70" cy="19" r="2"/><circle cx="70" cy="27" r="2"/><circle cx="70" cy="36" r="2"/><circle cx="70" cy="44" r="2"/><circle cx="70" cy="53" r="2"/><circle cx="70" cy="61" r="2"/><circle cx="70" cy="70" r="2"/><circle cx="70" cy="78" r="2"/></g></svg>