<svg width="31" height="9" fill="none" xmlns="http://www.w3.org/2000/svg"><g opacity=".3" fill="#EE9591"><circle cx="30" cy="8" r="1" transform="rotate(-180 30 8)"/><circle cx="30" cy="5" r="1" transform="rotate(-180 30 5)"/><circle cx="30" cy="1" r="1" transform="rotate(-180 30 1)"/><circle cx="26" cy="8" r="1" transform="rotate(-180 26 8)"/><circle cx="26" cy="5" r="1" transform="rotate(-180 26 5)"/><circle cx="26" cy="1" r="1" transform="rotate(-180 26 1)"/><circle cx="23" cy="8" r="1" transform="rotate(-180 23 8)"/><circle cx="23" cy="5" r="1" transform="rotate(-180 23 5)"/><circle cx="23" cy="1" r="1" transform="rotate(-180 23 1)"/><circle cx="19" cy="8" r="1" transform="rotate(-180 19 8)"/><circle cx="19" cy="5" r="1" transform="rotate(-180 19 5)"/><circle cx="19" cy="1" r="1" transform="rotate(-180 19 1)"/><circle cx="16" cy="8" r="1" transform="rotate(-180 16 8)"/><circle cx="16" cy="5" r="1" transform="rotate(-180 16 5)"/><circle cx="16" cy="1" r="1" transform="rotate(-180 16 1)"/><circle cx="12" cy="8" r="1" transform="rotate(-180 12 8)"/><circle cx="12" cy="5" r="1" transform="rotate(-180 12 5)"/><circle cx="12" cy="1" r="1" transform="rotate(-180 12 1)"/><circle cx="8" cy="8" r="1" transform="rotate(-180 8 8)"/><circle cx="8" cy="5" r="1" transform="rotate(-180 8 5)"/><circle cx="8" cy="1" r="1" transform="rotate(-180 8 1)"/><circle cx="5" cy="8" r="1" transform="rotate(-180 5 8)"/><circle cx="5" cy="5" r="1" transform="rotate(-180 5 5)"/><circle cx="5" cy="1" r="1" transform="rotate(-180 5 1)"/><circle cx="1" cy="8" r="1" transform="rotate(-180 1 8)"/><circle cx="1" cy="5" r="1" transform="rotate(-180 1 5)"/><circle cx="1" cy="1" r="1" transform="rotate(-180 1 1)"/></g></svg>