<svg width="49" height="50" fill="none" xmlns="http://www.w3.org/2000/svg"><path d="M40.539 8.447c4.072 4.23 7.218 8.737 8.082 13.676.863 4.908-.586 10.249-3.116 15.25-2.498 5-6.108 9.693-10.858 11.576-4.75 1.883-10.643.988-16.658-.74-5.984-1.73-12.092-4.26-14.992-8.83-2.9-4.6-2.59-11.236-.894-17.07 1.665-5.866 4.75-10.898 9.038-15.096C15.429 3.045 20.951-.29 26.195.02c5.244.309 10.241 4.23 14.344 8.427Z" fill="#F7C7C4"/><path fill-rule="evenodd" clip-rule="evenodd" d="M17.75 12.875c-.963 0-1.848.262-2.549.844-.698.58-1.122 1.402-1.307 2.355l-1.931 9.175a.97.97 0 0 0-.025.22v6.784a3.884 3.884 0 0 0 3.872 3.872h19.38a3.884 3.884 0 0 0 3.873-3.872v-6.784a.97.97 0 0 0-.026-.22l-1.93-9.172c-.187-.994-.632-1.82-1.343-2.39-.71-.57-1.59-.812-2.514-.812h-15.5ZM29.375 24.5H36.9l-1.692-8.035-.004-.023c-.118-.635-.368-1.016-.653-1.245-.29-.233-.711-.384-1.301-.384h-15.5c-.61 0-1.028.161-1.31.396-.285.236-.526.622-.645 1.24l-.003.016L14.1 24.5h7.525c.535 0 .969.434.969.969a2.906 2.906 0 1 0 5.812 0c0-.535.434-.969.969-.969Zm.87 1.938a4.844 4.844 0 0 1-9.49 0h-6.88v5.81a1.946 1.946 0 0 0 1.94 1.94h19.37a1.946 1.946 0 0 0 1.94-1.94v-5.81h-6.88Zm-12.495-8.72c0-.534.434-.968.969-.968H32.28a.969.969 0 1 1 0 1.938H18.72a.969.969 0 0 1-.969-.97Zm0 2.907a.969.969 0 0 0 0 1.938h15.5a.969.969 0 1 0 0-1.938h-15.5Z" fill="#888"/></svg>