<svg width="50" height="50" fill="none" xmlns="http://www.w3.org/2000/svg"><path d="M48.925 14.356c3.603 8.975-2.22 23.259-11.94 29.79-9.72 6.53-23.294 5.35-30.458-.8-7.165-6.153-7.919-17.276-4.735-25.703C4.976 9.258 12.1 3.57 22.195 2.6c10.097-.969 23.127 2.781 26.73 11.756Z" fill="#F7C7C4"/><path fill-rule="evenodd" clip-rule="evenodd" d="M13 26c0-6.627 5.373-12 12-12s12 5.373 12 12-5.373 12-12 12-12-5.373-12-12Zm12-14c-7.732 0-14 6.268-14 14s6.268 14 14 14 14-6.268 14-14-6.268-14-14-14Zm-3 12.5a1.5 1.5 0 1 1-3 0 1.5 1.5 0 0 1 3 0Zm-2.979 5.136C19.777 32.154 22.164 34 25.003 34c2.839 0 5.227-1.846 5.976-4.364a.5.5 0 0 0-.488-.636H19.51a.501.501 0 0 0-.489.636ZM29.5 26a1.5 1.5 0 1 0 0-3 1.5 1.5 0 0 0 0 3Z" fill="#888"/></svg>