<svg width="50" height="50" fill="none" xmlns="http://www.w3.org/2000/svg"><path d="M1.075 14.355c-3.603 8.975 2.22 23.259 11.94 29.79 9.72 6.53 23.294 5.351 30.458-.8 7.165-6.152 7.919-17.276 4.735-25.703C45.024 9.257 37.9 3.569 27.805 2.6 17.708 1.63 4.678 5.38 1.075 14.355Z" fill="#F7C7C4"/><path fill-rule="evenodd" clip-rule="evenodd" d="M40 30a2 2 0 0 1-2 2H12a2 2 0 0 1-2-2V16a2 2 0 0 1 2-2h26a2 2 0 0 1 2 2v14Zm-28-2.873V30h2.873A4.006 4.006 0 0 0 12 27.127ZM16.916 30A6 6 0 0 0 12 25.084v-4.168A6 6 0 0 0 16.916 16h16.168A6 6 0 0 0 38 20.916v4.168A6 6 0 0 0 33.084 30H16.916ZM38 30h-2.873A4 4 0 0 1 38 27.127V30ZM14.873 16A4.006 4.006 0 0 1 12 18.873V16h2.873ZM38 16v2.873A4 4 0 0 1 35.127 16H38ZM14 35.667a1 1 0 0 1 1-1h20a1 1 0 1 1 0 2H15a1 1 0 0 1-1-1ZM21 23a4 4 0 1 1 8 0 4 4 0 0 1-8 0Zm4-6a6 6 0 1 0 0 12 6 6 0 0 0 0-12Z" fill="#888"/></svg>