<svg width="50" height="50" fill="none" xmlns="http://www.w3.org/2000/svg"><path d="M48.925 14.355c3.603 8.975-2.22 23.259-11.94 29.79-9.72 6.53-23.294 5.351-30.458-.8-7.165-6.152-7.919-17.276-4.735-25.703C4.976 9.257 12.1 3.569 22.195 2.6c10.097-.97 23.127 2.78 26.73 11.755Z" fill="#F7C7C4"/><path fill-rule="evenodd" clip-rule="evenodd" d="M22 11a1 1 0 0 0-.967 1.253c.755 2.888-.5 5.348-2.22 8.036-.192.301-.391.607-.593.917-.67 1.026-1.365 2.092-1.923 3.164C15.56 25.786 15 27.322 15 29a10 10 0 0 0 20 0c0-5.75-2.062-10.23-4.697-13.279C27.712 12.721 24.46 11 22 11Zm-1.501 10.367c1.497-2.34 3.014-5.021 2.722-8.185 1.619.441 3.708 1.693 5.57 3.847C31.124 19.73 33 23.75 33 29a8 8 0 0 1-4.06 6.962C29.62 34.97 30 33.645 30 32c0-2.083-.958-4.29-2.218-5.956-.637-.842-1.38-1.586-2.173-2.127C24.826 23.382 23.927 23 23 23a1 1 0 0 0-.982 1.187c.18.951-.156 1.762-.739 3.026l-.029.064C20.695 28.482 20 29.989 20 32c0 1.645.38 2.97 1.06 3.962A8 8 0 0 1 17 29c0-1.228.409-2.434 1.07-3.706.509-.977 1.13-1.928 1.786-2.935.211-.324.426-.654.643-.992Zm2.632 6.608c.365-.792.773-1.677.897-2.68.145.076.296.166.453.274.579.395 1.171.975 1.706 1.682C27.27 28.683 28 30.476 28 32c0 1.62-.446 2.6-.98 3.168-.532.568-1.253.832-2.02.832-.767 0-1.488-.264-2.02-.832C22.445 34.6 22 33.62 22 32c0-1.56.53-2.723 1.096-3.95l.035-.075Z" fill="#888"/></svg>