<svg width="49" height="50" fill="none" xmlns="http://www.w3.org/2000/svg"><path d="M40.539 8.447c4.072 4.23 7.218 8.737 8.082 13.676.863 4.908-.586 10.249-3.116 15.25-2.498 5-6.108 9.693-10.858 11.576-4.75 1.883-10.643.988-16.658-.74-5.984-1.73-12.092-4.26-14.992-8.83-2.9-4.6-2.59-11.236-.894-17.07 1.665-5.866 4.75-10.898 9.038-15.096C15.429 3.045 20.951-.29 26.195.02c5.244.309 10.241 4.23 14.344 8.427Z" fill="#F7C7C4"/><path fill-rule="evenodd" clip-rule="evenodd" d="M18.775 14.286c-3.782 0-6.724 3.153-6.762 6.857A12.84 12.84 0 0 0 12.559 25h-.546a.974.974 0 0 0 0 1.948h1.302c2.028 4.258 6.139 7.577 10.264 10.377a1.947 1.947 0 0 0 2.192 0c3.474-2.358 6.937-5.084 9.156-8.429h2.41a.974.974 0 1 0 0-1.948h-1.302c.84-1.764 1.324-3.689 1.303-5.805-.038-3.704-2.98-6.857-6.763-6.857-2.32 0-4.028 1.149-5.118 2.23a9.65 9.65 0 0 0-.782.88 9.638 9.638 0 0 0-.782-.88c-1.09-1.081-2.797-2.23-5.118-2.23Zm15.063 12.662c1-1.766 1.572-3.679 1.551-5.785-.027-2.709-2.172-4.93-4.814-4.93-1.63 0-2.873.8-3.745 1.666a7.837 7.837 0 0 0-1.218 1.573 3.631 3.631 0 0 0-.055.099l-.01.02-.002.003-1.592.215a.971.971 0 0 1-.148-.215l-.001-.003-.006-.01-.005-.01a6.533 6.533 0 0 0-.294-.482 7.85 7.85 0 0 0-.978-1.19c-.873-.866-2.115-1.665-3.746-1.665-2.642 0-4.786 2.22-4.814 4.929l6.636-.899.285-.57a.974.974 0 0 1 1.804.156l.038.126 1.229-.167-1.23.167 2.18 7.262 1.823-3.648a.974.974 0 0 1 1.742 0l1.68 3.358h3.69Zm-13.241-6.684-6.636.9c-.014 1.354.218 2.629.651 3.836h3.617l2.368-4.736Zm-5.085 6.684c1.89 3.338 5.313 6.153 9.162 8.766h.002c3.077-2.089 5.881-4.307 7.849-6.818h-2.98a.974.974 0 0 1-.87-.538l-1.078-2.154-2.05 4.102a.974.974 0 0 1-1.805-.156l-2.216-7.388-1.824 3.648a.974.974 0 0 1-.871.538h-3.32Zm8.441-7.139 1.592-.215a.974.974 0 0 1-1.592.215Z" fill="#888"/></svg>