<svg width="50" height="50" fill="none" xmlns="http://www.w3.org/2000/svg"><path d="M1.075 14.355c-3.603 8.975 2.22 23.259 11.94 29.79 9.72 6.53 23.294 5.351 30.458-.8 7.165-6.152 7.919-17.276 4.735-25.703C45.024 9.257 37.9 3.569 27.805 2.6 17.708 1.63 4.678 5.38 1.075 14.355Z" fill="#F7C7C4"/><path fill-rule="evenodd" clip-rule="evenodd" d="M18 19a7 7 0 1 1 13.147 3.352 1 1 0 0 0-.178.307A7.007 7.007 0 0 1 25 26a7 7 0 0 1-7-7Zm16 0a8.962 8.962 0 0 1-.941 4.012l5.816 10.504a1 1 0 0 1-.88 1.484l-5.429-.026-2.707 4.538a1 1 0 0 1-1.77-.098L25 32.617l-3.09 6.797a1 1 0 0 1-1.769.098l-2.707-4.538-5.43.026a1 1 0 0 1-.878-1.486L16.95 23.03A9 9 0 1 1 34 19Zm-6.776 8.723a9 9 0 0 0 4.585-2.838l4.49 8.107-3.723-.018a2 2 0 0 0-1.727.975l-1.73 2.898L26.1 30.2l1.125-2.477ZM24.902 28l-.807 1.774a1.047 1.047 0 0 0-.01.024l-3.205 7.05-1.729-2.9a2 2 0 0 0-1.727-.974l-3.72.018 4.497-8.095A8.979 8.979 0 0 0 24.9 28ZM22 19a3 3 0 1 1 6 0 3 3 0 0 1-6 0Zm3-5a5 5 0 1 0 0 10 5 5 0 0 0 0-10Z" fill="#888"/></svg>