<svg width="51" height="50" fill="none" xmlns="http://www.w3.org/2000/svg"><path d="M8.6 4.89C2.995 9.204-.788 16.53.14 22.966c.929 6.402 6.637 11.88 12.243 16.877 5.571 4.999 11.074 9.517 17.126 10.1 6.053.547 12.69-2.876 16.576-7.874 3.886-4.999 5.056-11.606 4.402-17.528-.653-5.923-3.13-11.23-7.015-15.543-3.886-4.28-9.217-7.634-15.545-8.661C21.565-.69 14.206.577 8.6 4.89Z" fill="#F7C7C4"/><path fill-rule="evenodd" clip-rule="evenodd" d="M15 22.009c0-.557.452-1.009 1.009-1.009H37.99c.557 0 1.009.452 1.009 1.009V36.99c0 .557-.452 1.009-1.009 1.009H16.01A1.009 1.009 0 0 1 15 36.991V22.01ZM16.009 19A3.009 3.009 0 0 0 13 22.009V36.99c0 .772.29 1.476.769 2.009H12a1 1 0 1 0 0 2h30a1 1 0 1 0 0-2h-1.769A2.998 2.998 0 0 0 41 36.991V22.01A3.009 3.009 0 0 0 37.991 19H16.01Zm1.866 6.5a1 1 0 0 1 1-1h14.313a1 1 0 1 1 0 2H18.874a1 1 0 0 1-1-1Zm1 3a1 1 0 1 0 0 2h8.375a1 1 0 1 0 0-2h-8.375Z" fill="#888"/></svg>