<svg width="51" height="50" fill="none" xmlns="http://www.w3.org/2000/svg"><path d="M42.058 4.89c5.605 4.314 9.388 11.64 8.46 18.076-.929 6.402-6.638 11.88-12.243 16.877-5.571 4.999-11.074 9.517-17.126 10.1-6.053.547-12.69-2.876-16.576-7.874C.687 37.07-.483 30.463.17 24.54.824 18.618 3.3 13.31 7.186 8.998c3.886-4.28 9.217-7.634 15.545-8.661C29.093-.69 36.452.577 42.058 4.89Z" fill="#F7C7C4"/><path fill-rule="evenodd" clip-rule="evenodd" d="M26 11c-7.732 0-14 6.268-14 14s6.268 14 14 14 14-6.268 14-14-6.268-14-14-14ZM14 25c0-1.089.145-2.144.417-3.147.223.481.496.93.77 1.382.288.476.578.954.813 1.474.308.686.89.91 1.472 1.136.525.203 1.051.406 1.38.947.328.539.296 1.154.262 1.771-.029.543-.058 1.087.158 1.583.207.476.588.722.978.973.24.155.484.313.692.527.476.486.536 1.124.597 1.76a19.083 19.083 0 0 0 .499 2.905l.005.021C17.36 34.697 14 30.241 14 25Zm1.76-5.042a4.942 4.942 0 0 0-.295-.709 12.059 12.059 0 0 1 3.276-3.805 2.597 2.597 0 0 0 .542 1.811c.128.164.281.29.429.41.281.231.541.444.559.871.026.625-.072.945-.48 1.385-.084.089-.157.195-.229.302-.08.118-.159.235-.253.327l-.03.03a.587.587 0 0 1-.156.128c-.03.013-.062.017-.12.024-.042.005-.099.012-.177.026-.54.09-1.014.224-1.52.365l-.305.085c-.718.199-.987-.548-1.24-1.25Zm5.778-5.227c.103-.214 0-.516-.18-.8.226-.095.455-.183.687-.264a.97.97 0 0 0 .5.187c.142.01.28-.01.415-.03.266-.037.521-.072.763.116.106.082.205.17.302.256.273.244.536.478.933.55.52.094 1.07-.21 1.199-.742.076-.31.005-.637-.065-.96l-.01-.044c2.438.017 4.703.76 6.59 2.024-.13-.058-.287-.057-.484.034-.38.176-.917.625-.961 1.07-.05.505.694.576 1.048.576.53 0 1.07-.237.898-.85-.078-.279-.185-.57-.361-.734.402.277.786.579 1.15.902a8.232 8.232 0 0 1-.346.337c-.266.247-.526.49-.7.812-.173.32-.37.474-.721.557-.042.01-.085.018-.128.027-.158.031-.322.064-.45.166-.452.356-.195 1.212.234 1.469.542.324 1.346.172 1.755-.291.088-.1.166-.221.246-.344.207-.319.42-.648.836-.647.252-.001.495.098.676.275.18.186.196.364.216.573.006.067.013.137.025.21.09.55.575.252.868-.028.212.379.405.77.576 1.173l-.07.103c-.294.431-.566.832-1.286.33a4.033 4.033 0 0 1-.432-.365c-.263-.243-.518-.48-.902-.573-.44-.108-.89-.026-1.328.054l-.206.038c-.081.014-.165.026-.25.04-.51.079-1.062.164-1.434.536-.2.2-.356.432-.513.666-.17.255-.342.511-.574.73-.863.812-1.228 1.699-.669 2.848.537 1.104 1.662 1.703 2.875 1.625.257-.018.516-.063.763-.107.903-.158 1.66-.291 1.633 1.068-.013.612.115 1.037.303 1.607.138.413.16.816.182 1.233.006.113.012.227.02.342.045.613.131 1.27.303 1.892A11.98 11.98 0 0 1 26 37c-.68 0-1.348-.057-1.997-.165l.004-.099c.005-.131.009-.25.022-.34.152-.994.65-1.966 1.321-2.71.274-.303.59-.566.907-.83.448-.372.897-.745 1.225-1.232.546-.811.71-1.906.484-2.855-.234-.983-1.239-1.507-2.173-1.994-.4-.209-.786-.41-1.094-.638-.153-.114-.302-.244-.453-.375-.428-.372-.865-.753-1.438-.793-.137-.01-.264-.005-.39 0-.204.009-.402.017-.622-.04a2.923 2.923 0 0 1-.291-.097c-.204-.075-.398-.148-.635-.116-.284.037-.522.191-.759.345-.302.196-.601.39-.991.337-.66-.089-1.339-.86-1.489-1.488-.192-.808.447-1.07 1.13-1.141.287-.03.607-.063.881.042.201.074.343.216.485.359.114.114.227.228.372.307.608.334.731-.199.638-.739-.015-.088-.03-.17-.045-.247-.12-.636-.179-.952.464-1.448l.09-.068c.46-.35.833-.635.758-1.283-.016-.133-.05-.242-.082-.343-.065-.206-.12-.377.02-.648.153-.3.57-.573.851-.756l.016-.01c.215-.14.575-.236.95-.336.89-.236 1.866-.494 1.182-1.425-.286-.388-.813-1.082-1.313-1.176-.425-.08-.69.216-.952.51-.123.14-.247.278-.386.376-.45.319-1.326.68-1.777.188-.403-.44-.092-.684.227-.934.161-.126.323-.253.398-.407Zm15.584 14.783C37.688 28.12 38 26.596 38 25c0-.825-.083-1.631-.242-2.41-.585.325-1.368.453-1.852.383a3.118 3.118 0 0 1-1.364-.585c-.079-.059-.163-.144-.252-.232-.153-.154-.316-.317-.475-.366-.25-.077-1.122.096-1.313.247-.112.09-.207.25-.3.407-.064.108-.126.213-.192.292a2.946 2.946 0 0 1-.29.285c-.13.116-.26.232-.351.36-.833 1.18 1.224.857 1.759.773l.01-.002c1.029-.161 2.106.03 2.841.827.599.65.615 1.276.634 1.994.005.195.01.398.028.609.023.283.125.56.227.836.089.242.178.485.216.735.019.12.03.24.038.36Zm-11.243.9c-.243.433-.678.773-1.1 1.104-.231.18-.458.357-.647.545a2.119 2.119 0 0 0-.136.16c-.157.197-.365.457-.502.376-.09-.053-.139-.373-.176-.617-.017-.114-.032-.21-.047-.258a3.823 3.823 0 0 0-1.357-1.872 2.608 2.608 0 0 0-.281-.169c-.207-.114-.439-.242-.512-.374-.09-.16-.056-.478-.029-.732.01-.096.02-.183.021-.25.003-.137-.02-.31-.043-.487-.037-.278-.076-.569-.023-.762a.569.569 0 0 0 .032-.22l.004.002c.012.007.056.031.2 0 .173-.04.888.086 1.103.131.276.058.452.207.65.375l.151.125c.71.57 1.492 1.01 2.288 1.447.616.34.797.773.404 1.476Z" fill="#888"/></svg>