<svg width="46" height="46" fill="none" xmlns="http://www.w3.org/2000/svg"><path d="M0 23C0 10.297 10.297 0 23 0s23 10.297 23 23-10.297 23-23 23S0 35.703 0 23Z" fill="#F7F7F7"/><mask id="mask0_385_2869" style="mask-type:alpha" maskUnits="userSpaceOnUse" x="0" y="0" width="46" height="46"><path fill-rule="evenodd" clip-rule="evenodd" d="M0 23C0 10.297 10.297 0 23 0s23 10.297 23 23-10.297 23-23 23S0 35.703 0 23Z" fill="#fff"/></mask><g mask="url('#mask0_385_2869')"><path fill-rule="evenodd" clip-rule="evenodd" d="M23.001 10.733c-3.331 0-3.75.015-5.058.074-1.306.06-2.197.267-2.977.57a6.006 6.006 0 0 0-2.173 1.415 6.023 6.023 0 0 0-1.416 2.173c-.304.78-.511 1.672-.57 2.977-.058 1.308-.074 1.727-.074 5.058 0 3.332.015 3.748.074 5.057.06 1.306.267 2.197.57 2.977a6.01 6.01 0 0 0 1.415 2.173 6.006 6.006 0 0 0 2.172 1.416c.78.303 1.672.51 2.978.57 1.308.06 1.726.074 5.058.074 3.331 0 3.748-.015 5.056-.074 1.306-.06 2.199-.267 2.98-.57a6.002 6.002 0 0 0 2.17-1.416 6.021 6.021 0 0 0 1.417-2.173c.301-.78.508-1.671.57-2.977.058-1.308.074-1.725.074-5.057 0-3.331-.016-3.75-.075-5.058-.06-1.306-.268-2.197-.57-2.977a6.02 6.02 0 0 0-1.415-2.173 5.996 5.996 0 0 0-2.172-1.415c-.782-.303-1.674-.51-2.98-.57-1.309-.059-1.725-.074-5.058-.074h.004Zm-.409 2.21.41.001c3.274 0 3.663.012 4.956.07 1.196.055 1.845.255 2.277.423.573.222.981.488 1.41.917.43.43.695.839.918 1.411.168.432.368 1.081.422 2.277.06 1.293.072 1.682.072 4.955 0 3.274-.013 3.663-.072 4.956-.054 1.196-.254 1.845-.422 2.277-.222.572-.489.98-.918 1.409-.43.43-.837.695-1.41.917-.431.169-1.081.368-2.277.423-1.293.059-1.682.072-4.957.072s-3.664-.013-4.957-.072c-1.196-.055-1.845-.255-2.277-.423a3.8 3.8 0 0 1-1.411-.917 3.802 3.802 0 0 1-.918-1.41c-.168-.432-.368-1.081-.423-2.277-.058-1.294-.07-1.682-.07-4.958 0-3.275.012-3.662.07-4.955.055-1.196.255-1.845.423-2.278.222-.572.489-.98.918-1.41.43-.43.838-.695 1.41-.918.433-.169 1.082-.368 2.278-.423 1.132-.051 1.57-.066 3.857-.07v.004h.691Zm5.485 3.51a1.472 1.472 0 1 1 2.943 0 1.472 1.472 0 0 1-2.943 0Zm-5.076.248a6.3 6.3 0 1 0 0 12.6 6.3 6.3 0 0 0 0-12.6ZM27.09 23a4.089 4.089 0 1 0-8.178 0 4.089 4.089 0 0 0 8.178 0Z" fill="#000"/></g></svg>