<svg width="80" height="80" fill="none" xmlns="http://www.w3.org/2000/svg"><path d="M0 40C0 17.909 17.909 0 40 0s40 17.909 40 40-17.909 40-40 40S0 62.091 0 40Z" fill="#0077B5"/><path fill-rule="evenodd" clip-rule="evenodd" d="M28.865 24.704c0 2.616-1.969 4.708-5.13 4.708h-.058c-3.043 0-5.01-2.092-5.01-4.707 0-2.671 2.027-4.705 5.128-4.705s5.01 2.034 5.07 4.704Zm-.598 8.426v27.236h-9.064V33.13h9.064ZM60.96 60.366V44.749c0-8.365-4.472-12.259-10.437-12.259-4.813 0-6.968 2.644-8.17 4.498V33.13h-9.067c.12 2.556 0 27.237 0 27.237h9.066V45.156c0-.814.059-1.626.299-2.21.655-1.625 2.147-3.309 4.65-3.309 3.282 0 4.594 2.498 4.594 6.158v14.571h9.065Z" fill="#fff"/></svg>