<svg width="80" height="80" fill="none" xmlns="http://www.w3.org/2000/svg"><path d="M40 80c22.091 0 40-17.909 40-40S62.091 0 40 0 0 17.909 0 40s17.909 40 40 40Z" fill="#fff"/><path d="M24.762 55.403v8.538l7.984-4.54c2.225.642 4.59.988 7.042.988 13.138 0 23.787-9.937 23.787-22.194C63.575 25.937 52.926 16 39.788 16S16 25.937 16 38.195c0 6.94 3.415 13.138 8.762 17.208Z" fill="url('#paint0_linear_350_145')"/><path d="M37.247 32.116 24.42 45.699l11.675-6.406 6.1 6.406L54.95 32.116l-11.545 6.293-6.158-6.293Z" fill="#fff"/><defs><linearGradient id="paint0_linear_350_145" x1="18.655" y1="19.241" x2="18.655" y2="61.831" gradientUnits="userSpaceOnUse"><stop stop-color="#00C6FF"/><stop offset="1" stop-color="#0068FF"/></linearGradient></defs></svg>