<svg width="80" height="80" fill="none" xmlns="http://www.w3.org/2000/svg"><path d="M0 40C0 17.909 17.909 0 40 0s40 17.909 40 40-17.909 40-40 40S0 62.091 0 40Z" fill="#fff"/><path d="M27.56 45.661a4.519 4.519 0 0 1-4.509 4.508 4.519 4.519 0 0 1-4.508-4.508 4.52 4.52 0 0 1 4.508-4.508h4.508v4.508ZM29.83 45.661a4.519 4.519 0 0 1 4.509-4.508 4.52 4.52 0 0 1 4.508 4.508V56.95a4.52 4.52 0 0 1-4.508 4.508 4.519 4.519 0 0 1-4.508-4.508V45.661Z" fill="#E01E5A"/><path d="M34.339 27.56a4.519 4.519 0 0 1-4.508-4.509 4.519 4.519 0 0 1 4.508-4.508 4.52 4.52 0 0 1 4.508 4.508v4.508h-4.508ZM34.339 29.83a4.52 4.52 0 0 1 4.508 4.509 4.52 4.52 0 0 1-4.508 4.508H23.05a4.52 4.52 0 0 1-4.508-4.508 4.52 4.52 0 0 1 4.508-4.508H34.34Z" fill="#36C5F0"/><path d="M52.44 34.339a4.519 4.519 0 0 1 4.509-4.508 4.52 4.52 0 0 1 4.508 4.508 4.52 4.52 0 0 1-4.508 4.508H52.44v-4.508ZM50.17 34.339a4.52 4.52 0 0 1-4.509 4.508 4.52 4.52 0 0 1-4.508-4.508V23.05a4.52 4.52 0 0 1 4.508-4.508 4.52 4.52 0 0 1 4.508 4.508V34.34Z" fill="#2EB67D"/><path d="M45.661 52.44a4.52 4.52 0 0 1 4.508 4.509 4.519 4.519 0 0 1-4.508 4.508 4.519 4.519 0 0 1-4.508-4.508v-4.508h4.508ZM45.661 50.17a4.519 4.519 0 0 1-4.508-4.509 4.52 4.52 0 0 1 4.508-4.508H56.95a4.52 4.52 0 0 1 4.508 4.508 4.519 4.519 0 0 1-4.508 4.508H45.66Z" fill="#ECB22E"/></svg>