<svg width="80" height="80" fill="none" xmlns="http://www.w3.org/2000/svg"><path d="M40 80c22.091 0 40-17.909 40-40S62.091 0 40 0 0 17.909 0 40s17.909 40 40 40Z" fill="url('#paint0_linear_350_163')"/><path d="M14.897 41.957c4.676-2.576 9.896-4.726 14.773-6.886 8.39-3.54 16.814-7.017 25.322-10.255 1.656-.551 4.63-1.09 4.922 1.363-.16 3.472-.817 6.924-1.267 10.377-1.144 7.592-2.466 15.158-3.755 22.725-.445 2.52-3.602 3.825-5.622 2.212-4.856-3.28-9.748-6.527-14.542-9.883-1.57-1.595-.114-3.886 1.288-5.026 4-3.94 8.24-7.29 12.03-11.434 1.023-2.469-1.998-.388-2.994.25-5.475 3.772-10.816 7.775-16.587 11.09-2.949 1.624-6.385.237-9.332-.669-2.642-1.094-6.515-2.196-4.236-3.864Z" fill="#fff"/><defs><linearGradient id="paint0_linear_350_163" x1="30.005" y1="3.336" x2="10.005" y2="50" gradientUnits="userSpaceOnUse"><stop stop-color="#37AEE2"/><stop offset="1" stop-color="#1E96C8"/></linearGradient></defs></svg>