<svg width="80" height="80" fill="none" xmlns="http://www.w3.org/2000/svg"><path d="M40 80c22.091 0 40-17.909 40-40S62.091 0 40 0 0 17.909 0 40s17.909 40 40 40Z" fill="url('#paint0_linear_350_185')"/><path fill-rule="evenodd" clip-rule="evenodd" d="M16 24.007A7.997 7.997 0 0 1 24.007 16h31.986A7.997 7.997 0 0 1 64 24.007v31.986A7.997 7.997 0 0 1 55.993 64H24.007A7.997 7.997 0 0 1 16 55.993V24.007Zm27.12 1.114V40.36A2.88 2.88 0 0 0 46 43.24h8.88a2.88 2.88 0 0 0 2.88-2.881V25.12a2.88 2.88 0 0 0-2.88-2.881H46a2.88 2.88 0 0 0-2.88 2.881ZM22.24 52.362V25.118c0-1.59 1.29-2.878 2.88-2.878H34c1.59 0 2.88 1.289 2.88 2.878v27.244c0 1.59-1.29 2.878-2.88 2.878h-8.88a2.879 2.879 0 0 1-2.88-2.878Z" fill="#fff"/><defs><linearGradient id="paint0_linear_350_185" x1="0" y1="0" x2="0" y2="80" gradientUnits="userSpaceOnUse"><stop stop-color="#0091E6"/><stop offset="1" stop-color="#0079BF"/></linearGradient></defs></svg>