<svg width="46" height="46" fill="none" xmlns="http://www.w3.org/2000/svg"><path d="M0 23C0 10.297 10.297 0 23 0s23 10.297 23 23-10.297 23-23 23S0 35.703 0 23Z" fill="#55ACEE"/><path d="m22.311 18.695.048.796-.804-.098c-2.928-.373-5.486-1.64-7.658-3.768l-1.062-1.056-.273.78c-.58 1.738-.21 3.573.997 4.808.644.682.499.78-.611.373-.386-.13-.724-.227-.756-.179-.113.114.273 1.592.579 2.177.418.812 1.27 1.608 2.204 2.079l.788.373-.933.017c-.9 0-.933.016-.836.357.321 1.056 1.592 2.176 3.008 2.664l.998.34-.87.52a9.058 9.058 0 0 1-4.31 1.202c-.725.017-1.32.082-1.32.13 0 .163 1.963 1.072 3.105 1.43 3.427 1.055 7.497.6 10.554-1.202 2.172-1.284 4.344-3.833 5.357-6.302.547-1.316 1.094-3.72 1.094-4.873 0-.747.048-.844.95-1.738.53-.52 1.029-1.088 1.125-1.25.161-.309.145-.309-.675-.033-1.368.488-1.56.422-.885-.308.499-.52 1.094-1.462 1.094-1.738 0-.049-.242.032-.515.178-.29.163-.933.406-1.416.553l-.869.276-.788-.536c-.434-.293-1.046-.617-1.367-.715-.82-.227-2.076-.195-2.816.065-2.01.731-3.282 2.615-3.137 4.678Z" fill="#fff"/></svg>