<svg xmlns="http://www.w3.org/2000/svg" width="680" height="558" fill="none"><path d="m581.608 12.998.011.011.012.01 81.358 72.263.015.013.016.012c18.911 14.277 23.636 47.612-.012 66.657l-.038.03-.031.037L337.518 537.42c-13.811 15.178-28.533 19.905-41.313 19.686-12.799-.219-23.688-5.399-29.789-10.103L17.565 335.04l-.011-.009-.012-.009C8.101 327.894 2.174 315.988.988 303.458s2.372-25.618 11.821-35.13l.016-.016.014-.018 71.787-86.715.008-.01.008-.01c7.064-9.481 18.866-14.257 31.329-14.855 12.455-.597 25.491 2.987 34.957 10.128l133.989 115.61.384.331.326-.389 229.717-274.6.009-.011.009-.011C522.443 8.257 534.27 2.293 546.714 1.1s25.444 2.387 34.893 11.899z" stroke="#3898fe" stroke-opacity=".11"/></svg>