<svg width="80" height="80" fill="none" xmlns="http://www.w3.org/2000/svg"><path d="M40 80c22.091 0 40-17.909 40-40S62.091 0 40 0 0 17.909 0 40s17.909 40 40 40Z" fill="#25D366"/><path fill-rule="evenodd" clip-rule="evenodd" d="M41.319 62.254h-.01c-3.981-.001-7.893-1-11.367-2.895l-12.609 3.308 3.375-12.325a23.743 23.743 0 0 1-3.175-11.892c.005-13.114 10.675-23.783 23.785-23.783 6.363.002 12.335 2.48 16.826 6.975a23.641 23.641 0 0 1 6.96 16.827c-.006 13.111-10.672 23.78-23.785 23.785Zm-10.793-7.2.722.428a19.74 19.74 0 0 0 10.062 2.755h.008c10.897 0 19.765-8.868 19.77-19.77a19.65 19.65 0 0 0-5.785-13.985 19.635 19.635 0 0 0-13.977-5.798c-10.904 0-19.773 8.868-19.777 19.768a19.723 19.723 0 0 0 3.022 10.52l.47.749-1.997 7.295 7.482-1.963ZM52.487 43.59c.415.2.695.336.814.535.149.248.149 1.438-.346 2.827-.496 1.388-2.87 2.655-4.012 2.825-1.024.153-2.32.217-3.743-.235-.863-.274-1.97-.64-3.388-1.252-5.572-2.406-9.337-7.806-10.049-8.826a7.366 7.366 0 0 0-.104-.148l-.005-.006c-.314-.42-2.421-3.232-2.421-6.142 0-2.738 1.344-4.172 1.963-4.833l.117-.125c.544-.595 1.188-.744 1.584-.744.397 0 .793.004 1.14.021.042.003.087.002.133.002.346-.002.778-.005 1.204 1.019.163.393.403.977.656 1.593.511 1.245 1.077 2.62 1.176 2.82.149.297.248.644.05 1.04l-.084.17c-.149.304-.258.527-.51.822-.1.116-.203.241-.305.366-.205.249-.41.498-.587.675-.298.297-.608.618-.26 1.213.346.595 1.539 2.541 3.305 4.117a15.35 15.35 0 0 0 4.387 2.773c.163.071.296.128.393.177.594.298.94.248 1.287-.149.347-.396 1.486-1.735 1.882-2.33.396-.595.793-.496 1.337-.297.545.198 3.467 1.636 4.061 1.933l.325.16Z" fill="#FDFDFD"/></svg>