<svg width="112" height="112" fill="none" xmlns="http://www.w3.org/2000/svg"><g filter="url('#filter0_d_350_210')"><path d="M50 90c22.091 0 40-17.909 40-40S72.091 10 50 10 10 27.909 10 50s17.909 40 40 40Z" fill="#2D8CFF"/><path fill-rule="evenodd" clip-rule="evenodd" d="m73.478 36.559-11.304 8.248v10.418l11.304 8.248c.8.611 1.74.8 1.74-.868V37.427c0-1.487-.754-1.674-1.74-.868ZM23.913 56.261V37.48c0-.768.628-1.392 1.404-1.392h27.392c4.265 0 7.726 3.426 7.726 7.652v18.782c0 .769-.629 1.392-1.404 1.392H31.639c-4.265 0-7.726-3.426-7.726-7.652Z" fill="#fff"/></g><defs><filter id="filter0_d_350_210" x="0" y="0" width="112" height="112" filterUnits="userSpaceOnUse" color-interpolation-filters="sRGB"><feFlood flood-opacity="0" result="BackgroundImageFix"/><feColorMatrix in="SourceAlpha" values="0 0 0 0 0 0 0 0 0 0 0 0 0 0 0 0 0 0 127 0" result="hardAlpha"/><feOffset dx="6" dy="6"/><feGaussianBlur stdDeviation="8"/><feColorMatrix values="0 0 0 0 0 0 0 0 0 0 0 0 0 0 0 0 0 0 0.1 0"/><feBlend in2="BackgroundImageFix" result="effect1_dropShadow_350_210"/><feBlend in="SourceGraphic" in2="effect1_dropShadow_350_210" result="shape"/></filter></defs></svg>