<svg width="80" height="80" viewBox="0 0 80 80" fill="none" xmlns="http://www.w3.org/2000/svg">
<path d="M80 40C80 17.9063 62.0937 0 40 0C17.9063 0 0 17.9063 0 40C0 59.9688 14.625 76.5157 33.75 79.5157V51.5625H23.5937V40H33.75V31.1875C33.75 21.164 39.7188 15.625 48.8593 15.625C53.2343 15.625 57.8125 16.4063 57.8125 16.4063V26.25H52.7657C47.7968 26.25 46.25 29.336 46.25 32.5V40H57.3437L55.5703 51.5625H46.25V79.5157C65.375 76.5157 80 59.9688 80 40Z" fill="#1877F2"/>
<path d="M55.5703 51.5625L57.3436 40H46.25V32.5C46.25 29.336 47.7968 26.25 52.7656 26.25H57.8124V16.4062C57.8124 16.4062 53.2343 15.625 48.8593 15.625C39.7188 15.625 33.75 21.164 33.75 31.1875V40H23.5936V51.5625H33.75V79.5157C35.789 79.836 37.875 80 40 80C42.125 80 44.211 79.836 46.25 79.5157V51.5625H55.5703Z" fill="white"/>
</svg>
