<svg width="80" height="80" viewBox="0 0 80 80" fill="none" xmlns="http://www.w3.org/2000/svg">
<path d="M0 40C0 17.9087 17.9087 0 40 0C62.0913 0 80 17.9087 80 40C80 62.0913 62.0913 80 40 80C17.9087 80 0 62.0913 0 40Z" fill="white"/>
<path d="M57.4495 55.3834H22.5015C21.1463 55.3834 20.0052 54.2779 20.0052 52.887V27.6389C20.0052 26.2839 21.1107 25.1427 22.5015 25.1427H57.4495C58.8047 25.1427 59.9458 26.2482 59.9458 27.6389V52.887C59.9458 54.2779 58.8403 55.3834 57.4495 55.3834Z" fill="#E3E3E3"/>
<path opacity="0.1" d="M24.9978 55.3834L39.9398 43.3656L40.0468 42.7237L24.6412 31.6331L24.6055 54.8486L24.9978 55.3834Z" fill="#231F20"/>
<path d="M22.5015 55.3834C21.1107 55.3834 20.0052 54.2779 20.0052 52.8871V27.6032C20.0052 26.2126 21.1107 25.9629 22.5015 25.9629C23.8923 25.9629 24.9978 26.2482 24.9978 27.6032V55.3834H22.5015Z" fill="#D54B3D"/>
<path fill-rule="evenodd" clip-rule="evenodd" d="M20.0052 27.6032C20.0052 26.2482 21.1107 25.9629 22.5015 25.9629C23.8923 25.9629 24.9978 26.2126 24.9978 27.6032V55.3834H22.5015C21.1107 55.3834 20.0052 54.2779 20.0052 52.8871V27.6032ZM24.6412 27.6032C24.6412 26.8544 24.2845 26.3195 22.5015 26.3195C20.7185 26.3195 20.3618 26.8187 20.3618 27.6032V52.887C20.3618 54.0639 21.3247 55.0267 22.5015 55.0267H24.6412V27.6032Z" fill="#D72B27"/>
<path d="M57.4495 55.3834H54.9532V27.5321C54.9532 26.1412 56.0587 25.9629 57.4495 25.9629C58.8402 25.9629 59.9457 26.1412 59.9457 27.5321V52.9227C59.9457 54.2779 58.8402 55.3834 57.4495 55.3834Z" fill="#D54B3D"/>
<path fill-rule="evenodd" clip-rule="evenodd" d="M54.9532 27.5321C54.9532 26.1412 56.0587 25.9629 57.4495 25.9629C58.8402 25.9629 59.9457 26.1412 59.9457 27.5321V52.9227C59.9457 54.3136 58.8402 55.4191 57.4495 55.4191H54.9532V27.5321ZM59.5892 27.532C59.5892 26.6404 59.0542 26.3195 57.4495 26.3195C55.8447 26.3195 55.3098 26.6047 55.3098 27.532V55.0624H57.4495C58.6263 55.0624 59.5892 54.0995 59.5892 52.9227V27.532Z" fill="#D72B27"/>
<path d="M46.7512 55.3833L20.2142 28.6403L21.61 29.208L40.0825 42.5097L59.9458 27.9443V52.9227C59.9458 54.2778 58.8403 55.3833 57.4495 55.3833H46.7512Z" fill="url(#paint0_linear_350_192)"/>
<path d="M39.9398 43.3655L21.075 29.6717C19.9695 28.8515 19.6487 27.2824 20.4688 26.1769C21.289 25.0714 22.8938 24.8217 24.035 25.6419L39.9755 37.2319L56.023 25.4994C57.1285 24.679 58.6977 24.9287 59.5178 26.0699C60.338 27.1754 60.0883 28.7445 58.9472 29.5647L39.9398 43.3655Z" fill="#D54B3D"/>
<path fill-rule="evenodd" clip-rule="evenodd" d="M55.9873 25.4637C56.4153 25.1427 56.9502 25 57.4495 25C58.234 25 58.9828 25.3567 59.4822 26.0698C60.2667 27.211 60.0172 28.7445 58.9117 29.5647L39.9398 43.4012L21.075 29.6717C19.9695 28.8513 19.6487 27.2823 20.4332 26.1768C20.9323 25.4993 21.717 25.1427 22.5015 25.1427C23.0365 25.1427 23.5713 25.2853 23.9993 25.6062L39.9398 37.1962L55.9873 25.4637ZM59.1968 26.2482C58.769 25.6775 58.127 25.3567 57.4495 25.3567C56.9858 25.3567 56.558 25.4993 56.1657 25.7488L40.1538 37.4815L39.9398 37.624L39.7258 37.4815L23.821 25.9272C23.4643 25.6418 23.0008 25.4993 22.5372 25.4993C21.824 25.4993 21.1463 25.8558 20.7542 26.3908C20.0765 27.318 20.3262 28.6732 21.289 29.3863L39.9398 42.9375L58.7333 29.2437C59.6605 28.5305 59.8745 27.211 59.1968 26.2482Z" fill="#D72B27"/>
<defs>
<linearGradient id="paint0_linear_350_192" x1="20.2157" y1="55.3866" x2="59.9587" y2="55.3866" gradientUnits="userSpaceOnUse">
<stop stop-opacity="0.1"/>
<stop offset="1" stop-opacity="0.2"/>
</linearGradient>
</defs>
</svg>
