<svg width="80" height="80" viewBox="0 0 80 80" fill="none" xmlns="http://www.w3.org/2000/svg">
<path d="M0 40C0 17.9086 17.9086 0 40 0C62.0914 0 80 17.9086 80 40C80 62.0914 62.0914 80 40 80C17.9086 80 0 62.0914 0 40Z" fill="white"/>
<path d="M40 29.3688C43.2548 29.3688 45.4504 30.7748 46.7022 31.9496L51.5941 27.1733C48.5896 24.3807 44.68 22.6666 40 22.6666C33.2208 22.6666 27.3659 26.557 24.5156 32.2192L30.12 36.5718C31.5259 32.3926 35.4163 29.3688 40 29.3688V29.3688Z" fill="#EA4335"/>
<path d="M56.64 40.3851C56.64 38.9599 56.5244 37.9199 56.2741 36.8414H40V43.274H49.5526C49.36 44.8725 48.32 47.28 46.0089 48.8977L51.4785 53.1348C54.7526 50.1111 56.64 45.6622 56.64 40.3851V40.3851Z" fill="#4285F4"/>
<path d="M30.1393 43.4281C29.7733 42.3496 29.5615 41.1941 29.5615 40C29.5615 38.8059 29.7733 37.6504 30.12 36.5718L24.5156 32.2192C23.3407 34.5689 22.6667 37.2074 22.6667 40C22.6667 42.7926 23.3407 45.4311 24.5156 47.7807L30.1393 43.4281V43.4281Z" fill="#FBBC05"/>
<path d="M40 57.3333C44.68 57.3333 48.6089 55.7926 51.4785 53.1348L46.0089 48.8977C44.5452 49.9185 42.5807 50.6311 40 50.6311C35.4163 50.6311 31.5259 47.6074 30.1393 43.4281L24.5348 47.7807C27.3852 53.4429 33.2207 57.3333 40 57.3333V57.3333Z" fill="#34A853"/>
</svg>
