<svg width="49" height="50" viewBox="0 0 49 50" fill="none" xmlns="http://www.w3.org/2000/svg">
<path d="M40.5387 8.44741C44.6106 12.6766 47.757 17.1837 48.6208 22.1229C49.4845 27.0313 48.0346 32.3718 45.5052 37.3728C43.0065 42.3738 39.3973 47.066 34.6468 48.9491C29.8963 50.8322 24.0044 49.937 17.9892 48.2082C12.0048 46.4795 5.89696 43.9482 2.9973 39.3794C0.0976309 34.7797 0.406105 28.1426 2.10272 22.3081C3.76848 16.4428 6.85323 11.4109 11.141 7.2126C15.4288 3.04512 20.9505 -0.288862 26.1946 0.01984C31.4387 0.328542 36.436 4.24906 40.5387 8.44741Z" fill="#F7C7C4"/>
<path fill-rule="evenodd" clip-rule="evenodd" d="M17.75 12.875C16.7865 12.875 15.9017 13.1371 15.201 13.7192C14.5031 14.299 14.0791 15.1206 13.8941 16.0739L11.9625 25.2491C11.9461 25.3197 11.9375 25.3932 11.9375 25.4688V32.25L11.9375 32.2528C11.9405 33.2789 12.3494 34.262 13.0749 34.9876C13.8005 35.7131 14.7836 36.122 15.8097 36.125L15.8125 36.125H35.1875L35.1903 36.125C36.2164 36.122 37.1995 35.7131 37.9251 34.9876C38.6506 34.262 39.0595 33.2789 39.0625 32.2528L39.0625 32.25V25.4688C39.0625 25.3932 39.0539 25.3197 39.0375 25.2491L37.1065 16.077C36.92 15.0826 36.4746 14.2571 35.7638 13.6863C35.0548 13.1169 34.174 12.875 33.25 12.875H17.75ZM29.375 24.5H36.8998L35.2083 16.4652L35.2037 16.442C35.0861 15.8071 34.836 15.4261 34.5507 15.197C34.2606 14.9641 33.8397 14.8125 33.25 14.8125H17.75C17.1393 14.8125 16.7224 14.9742 16.4391 15.2095C16.1553 15.4453 15.9137 15.8314 15.7951 16.4486L15.7917 16.4652L14.1002 24.5H21.625C22.16 24.5 22.5938 24.9337 22.5938 25.4688C22.5938 26.2395 22.8999 26.9788 23.445 27.5238C23.99 28.0688 24.7292 28.375 25.5 28.375C26.2708 28.375 27.01 28.0688 27.555 27.5238C28.1001 26.9788 28.4062 26.2395 28.4062 25.4688C28.4062 24.9337 28.84 24.5 29.375 24.5ZM30.2459 26.4375C30.0574 27.3611 29.6016 28.2172 28.925 28.8938C28.0167 29.8022 26.7846 30.3125 25.5 30.3125C24.2154 30.3125 22.9833 29.8022 22.075 28.8938C21.3984 28.2172 20.9426 27.3611 20.7541 26.4375H13.875V32.2485C13.8768 32.7621 14.0817 33.2543 14.445 33.6176C14.8082 33.9808 15.3004 34.1857 15.8142 34.1875H35.1858C35.6996 34.1857 36.1918 33.9808 36.555 33.6176C36.9183 33.2543 37.1232 32.7621 37.125 32.2483V26.4375H30.2459ZM17.75 17.7187C17.75 17.1837 18.1837 16.75 18.7188 16.75H32.2812C32.8163 16.75 33.25 17.1837 33.25 17.7187C33.25 18.2538 32.8163 18.6875 32.2812 18.6875H18.7188C18.1837 18.6875 17.75 18.2538 17.75 17.7187ZM17.75 20.625C17.215 20.625 16.7813 21.0587 16.7813 21.5938C16.7813 22.1288 17.215 22.5625 17.75 22.5625H33.25C33.785 22.5625 34.2188 22.1288 34.2188 21.5938C34.2188 21.0587 33.785 20.625 33.25 20.625H17.75Z" fill="#888888"/>
</svg>
