<svg width="51" height="50" viewBox="0 0 51 50" fill="none" xmlns="http://www.w3.org/2000/svg">
<path d="M8.60014 4.89006C2.99458 9.20359 -0.788319 16.5298 0.140209 22.9658C1.06874 29.3676 6.77748 34.8452 12.383 39.8434C17.9542 44.8416 23.4566 49.3605 29.5092 49.9425C35.5619 50.4903 42.1991 47.0668 46.0852 42.0686C49.9713 37.0704 51.1405 30.4632 50.4871 24.5406C49.8337 18.618 47.3576 13.3117 43.4716 8.99818C39.5855 4.71888 34.2551 1.36391 27.9273 0.336882C21.5652 -0.69015 14.2057 0.576523 8.60014 4.89006Z" fill="#F7C7C4"/>
<path fill-rule="evenodd" clip-rule="evenodd" d="M15 22.0087C15 21.4516 15.4516 21 16.0087 21H37.9912C38.5484 21 39 21.4516 39 22.0087V36.9912C39 37.5484 38.5484 38 37.9912 38H16.0087C15.4516 38 15 37.5484 15 36.9912V22.0087ZM16.0087 19C14.3471 19 13 20.3471 13 22.0087V36.9912C13 37.7633 13.2908 38.4673 13.7687 39H12C11.4477 39 11 39.4477 11 40C11 40.5523 11.4477 41 12 41H42C42.5523 41 43 40.5523 43 40C43 39.4477 42.5523 39 42 39H40.2313C40.7092 38.4673 41 37.7633 41 36.9912V22.0087C41 20.3471 39.6529 19 37.9912 19H16.0087ZM17.875 25.5C17.875 24.9477 18.3227 24.5 18.875 24.5H33.1875C33.7398 24.5 34.1875 24.9477 34.1875 25.5C34.1875 26.0523 33.7398 26.5 33.1875 26.5H18.875C18.3227 26.5 17.875 26.0523 17.875 25.5ZM18.875 28.5C18.3227 28.5 17.875 28.9477 17.875 29.5C17.875 30.0523 18.3227 30.5 18.875 30.5H27.25C27.8023 30.5 28.25 30.0523 28.25 29.5C28.25 28.9477 27.8023 28.5 27.25 28.5H18.875Z" fill="#888888"/>
</svg>
