<svg width="50" height="50" viewBox="0 0 50 50" fill="none" xmlns="http://www.w3.org/2000/svg">
<path d="M48.9249 14.3562C52.5279 23.331 46.7044 37.6147 36.9846 44.1457C27.2649 50.6766 13.6907 49.4968 6.52661 43.3451C-0.637522 37.1934 -1.39164 26.0697 1.79242 17.6427C4.97648 9.25784 12.0987 3.56961 22.1955 2.6005C32.2924 1.63139 45.3219 5.38141 48.9249 14.3562Z" fill="#F7C7C4"/>
<path fill-rule="evenodd" clip-rule="evenodd" d="M13 26C13 19.3726 18.3726 14 25 14C31.6274 14 37 19.3726 37 26C37 32.6274 31.6274 38 25 38C18.3726 38 13 32.6274 13 26ZM25 12C17.268 12 11 18.268 11 26C11 33.732 17.268 40 25 40C32.732 40 39 33.732 39 26C39 18.268 32.732 12 25 12ZM22 24.5C22 25.3284 21.3284 26 20.5 26C19.6716 26 19 25.3284 19 24.5C19 23.6716 19.6716 23 20.5 23C21.3284 23 22 23.6716 22 24.5ZM19.0212 29.6356C19.7769 32.1544 22.1644 34 25.0031 34C27.8419 34 30.23 32.1544 30.9794 29.6356C31.0005 29.5607 31.0038 29.4818 30.9891 29.4053C30.9744 29.3289 30.942 29.2569 30.8945 29.1952C30.847 29.1334 30.7858 29.0836 30.7157 29.0497C30.6456 29.0159 30.5685 28.9988 30.4906 29H19.51C19.4321 28.9988 19.3551 29.0159 19.2849 29.0497C19.2148 29.0836 19.1536 29.1334 19.1061 29.1952C19.0586 29.2569 19.0263 29.3289 19.0115 29.4053C18.9968 29.4818 19.0001 29.5607 19.0212 29.6356ZM29.5 26C30.3284 26 31 25.3284 31 24.5C31 23.6716 30.3284 23 29.5 23C28.6716 23 28 23.6716 28 24.5C28 25.3284 28.6716 26 29.5 26Z" fill="#888888"/>
</svg>
