<svg width="80" height="80" viewBox="0 0 80 80" fill="none" xmlns="http://www.w3.org/2000/svg">
<path d="M0 40C0 17.9086 17.9086 0 40 0C62.0914 0 80 17.9086 80 40C80 62.0914 62.0914 80 40 80C17.9086 80 0 62.0914 0 40Z" fill="#0077B5"/>
<path fill-rule="evenodd" clip-rule="evenodd" d="M28.8646 24.7045C28.8646 27.3197 26.8961 29.4122 23.7353 29.4122H23.6773C20.6341 29.4122 18.6666 27.3197 18.6666 24.7045C18.6666 22.034 20.694 20 23.795 20C26.8961 20 28.8057 22.034 28.8646 24.7045ZM28.2675 33.1297V60.3659H19.2026V33.1297H28.2675ZM60.9586 60.366L60.959 44.7495C60.959 36.3838 56.487 32.4902 50.5219 32.4902C45.709 32.4902 43.5542 35.1338 42.3511 36.9883V33.1305H33.2852C33.4046 35.6862 33.2852 60.3667 33.2852 60.3667H42.3511V45.1557C42.3511 44.3417 42.41 43.5297 42.6496 42.9469C43.3048 41.3207 44.7965 39.6371 47.3008 39.6371C50.5823 39.6371 51.8941 42.1346 51.8941 45.7946V60.366H60.9586Z" fill="white"/>
</svg>
