<svg width="80" height="80" viewBox="0 0 80 80" fill="none" xmlns="http://www.w3.org/2000/svg">
<path d="M40 80C62.0914 80 80 62.0914 80 40C80 17.9086 62.0914 0 40 0C17.9086 0 0 17.9086 0 40C0 62.0914 17.9086 80 40 80Z" fill="white"/>
<path d="M24.7621 55.4025V63.9405L32.7456 59.4018C34.971 60.0432 37.3366 60.3894 39.7876 60.3894C52.926 60.3894 63.5752 50.4517 63.5752 38.1947C63.5752 25.9368 52.926 16 39.7876 16C26.6501 16 16 25.9368 16 38.1947C16 45.1356 19.4148 51.3331 24.7621 55.4025Z" fill="url(#paint0_linear_350_145)"/>
<path d="M37.2474 32.1157L24.4189 45.6985L36.0939 39.2928L42.194 45.6985L54.9501 32.1157L43.4046 38.4092L37.2474 32.1157V32.1157Z" fill="white"/>
<defs>
<linearGradient id="paint0_linear_350_145" x1="18.6547" y1="19.2408" x2="18.6547" y2="61.8311" gradientUnits="userSpaceOnUse">
<stop stop-color="#00C6FF"/>
<stop offset="1" stop-color="#0068FF"/>
</linearGradient>
</defs>
</svg>
