<svg width="80" height="80" viewBox="0 0 80 80" fill="none" xmlns="http://www.w3.org/2000/svg">
<path d="M0 40C0 17.9086 17.9086 0 40 0C62.0914 0 80 17.9086 80 40C80 62.0914 62.0914 80 40 80C17.9086 80 0 62.0914 0 40Z" fill="white"/>
<path d="M27.5591 45.6614C27.5591 48.1426 25.5323 50.1694 23.0511 50.1694C20.5699 50.1694 18.543 48.1426 18.543 45.6614C18.543 43.1802 20.5699 41.1533 23.0511 41.1533H27.5591V45.6614Z" fill="#E01E5A"/>
<path d="M29.8307 45.6614C29.8307 43.1802 31.8575 41.1533 34.3387 41.1533C36.8199 41.1533 38.8468 43.1802 38.8468 45.6614V56.949C38.8468 59.4302 36.8199 61.4571 34.3387 61.4571C31.8575 61.4571 29.8307 59.4302 29.8307 56.949V45.6614Z" fill="#E01E5A"/>
<path d="M34.3387 27.5592C31.8575 27.5592 29.8307 25.5323 29.8307 23.0512C29.8307 20.57 31.8575 18.5431 34.3387 18.5431C36.8199 18.5431 38.8468 20.57 38.8468 23.0512V27.5592H34.3387Z" fill="#36C5F0"/>
<path d="M34.3387 29.8307C36.8199 29.8307 38.8468 31.8576 38.8468 34.3388C38.8468 36.8199 36.8199 38.8468 34.3387 38.8468H23.0511C20.5699 38.8468 18.543 36.8199 18.543 34.3388C18.543 31.8576 20.5699 29.8307 23.0511 29.8307H34.3387Z" fill="#36C5F0"/>
<path d="M52.4409 34.3388C52.4409 31.8576 54.4677 29.8307 56.9489 29.8307C59.4301 29.8307 61.457 31.8576 61.457 34.3388C61.457 36.8199 59.4301 38.8468 56.9489 38.8468H52.4409V34.3388Z" fill="#2EB67D"/>
<path d="M50.1694 34.3388C50.1694 36.82 48.1425 38.8469 45.6613 38.8469C43.1801 38.8469 41.1532 36.82 41.1532 34.3388V23.0512C41.1532 20.57 43.1801 18.5431 45.6613 18.5431C48.1425 18.5431 50.1694 20.57 50.1694 23.0512V34.3388Z" fill="#2EB67D"/>
<path d="M45.6613 52.4409C48.1425 52.4409 50.1694 54.4678 50.1694 56.949C50.1694 59.4302 48.1425 61.457 45.6613 61.457C43.1801 61.457 41.1532 59.4302 41.1532 56.949V52.4409H45.6613Z" fill="#ECB22E"/>
<path d="M45.6613 50.1694C43.1801 50.1694 41.1532 48.1426 41.1532 45.6614C41.1532 43.1802 43.1801 41.1533 45.6613 41.1533H56.9489C59.4301 41.1533 61.457 43.1802 61.457 45.6614C61.457 48.1426 59.4301 50.1694 56.9489 50.1694H45.6613Z" fill="#ECB22E"/>
</svg>
