<svg width="80" height="80" viewBox="0 0 80 80" fill="none" xmlns="http://www.w3.org/2000/svg">
<path d="M40 80C62.0913 80 80 62.0913 80 40C80 17.9087 62.0913 0 40 0C17.9087 0 0 17.9087 0 40C0 62.0913 17.9087 80 40 80Z" fill="url(#paint0_linear_350_163)"/>
<path d="M14.897 41.9567C19.573 39.381 24.7927 37.2314 29.6697 35.0707C38.06 31.5317 46.4837 28.054 54.9923 24.8164C56.6478 24.2647 59.6223 23.7252 59.914 26.1785C59.7543 29.6512 59.0973 33.1035 58.6467 36.5559C57.5028 44.1479 56.1808 51.7139 54.8917 59.2809C54.4475 61.8014 51.29 63.1062 49.2697 61.4932C44.4143 58.2135 39.5217 54.9659 34.7283 51.6102C33.1582 50.0147 34.6142 47.7235 36.0165 46.5842C40.0155 42.6432 44.2565 39.2949 48.0465 35.1502C49.0688 32.6814 46.0482 34.762 45.0518 35.3995C39.5772 39.1722 34.2365 43.1752 28.4645 46.4909C25.5162 48.1139 22.0798 46.7269 19.1328 45.8212C16.4905 44.7272 12.6184 43.625 14.8968 41.9569L14.897 41.9567Z" fill="white"/>
<defs>
<linearGradient id="paint0_linear_350_163" x1="30.0047" y1="3.336" x2="10.0047" y2="50" gradientUnits="userSpaceOnUse">
<stop stop-color="#37AEE2"/>
<stop offset="1" stop-color="#1E96C8"/>
</linearGradient>
</defs>
</svg>
