<svg width="80" height="80" viewBox="0 0 80 80" fill="none" xmlns="http://www.w3.org/2000/svg">
<path d="M40 80C62.0914 80 80 62.0914 80 40C80 17.9086 62.0914 0 40 0C17.9086 0 0 17.9086 0 40C0 62.0914 17.9086 80 40 80Z" fill="url(#paint0_linear_350_185)"/>
<path fill-rule="evenodd" clip-rule="evenodd" d="M16 24.0071C16 19.5849 19.5686 16 24.0071 16H55.9929C60.4151 16 64 19.5686 64 24.0071V55.9929C64 60.4151 60.4314 64 55.9929 64H24.0071C19.5849 64 16 60.4314 16 55.9929V24.0071ZM43.12 25.1214V40.3586C43.12 41.9501 44.4091 43.24 45.9993 43.24H54.8807C56.4704 43.24 57.76 41.95 57.76 40.3586V25.1214C57.76 23.5299 56.4709 22.24 54.8807 22.24H45.9993C44.4096 22.24 43.12 23.5301 43.12 25.1214ZM22.24 52.362V25.118C22.24 23.5285 23.5296 22.24 25.1193 22.24H34.0007C35.5909 22.24 36.88 23.5286 36.88 25.118V52.362C36.88 53.9515 35.5904 55.24 34.0007 55.24H25.1193C23.5291 55.24 22.24 53.9514 22.24 52.362Z" fill="white"/>
<defs>
<linearGradient id="paint0_linear_350_185" x1="0" y1="0" x2="0" y2="80" gradientUnits="userSpaceOnUse">
<stop stop-color="#0091E6"/>
<stop offset="1" stop-color="#0079BF"/>
</linearGradient>
</defs>
</svg>
