<svg width="80" height="80" viewBox="0 0 80 80" fill="none" xmlns="http://www.w3.org/2000/svg">
<path d="M40 80C62.0914 80 80 62.0914 80 40C80 17.9086 62.0914 0 40 0C17.9086 0 0 17.9086 0 40C0 62.0914 17.9086 80 40 80Z" fill="#25D366"/>
<path fill-rule="evenodd" clip-rule="evenodd" d="M41.3185 62.2543H41.3086C37.3278 62.2529 33.4163 61.2541 29.9422 59.3592L17.3333 62.6667L20.7077 50.3415C18.6262 46.7343 17.531 42.6426 17.5327 38.4505C17.538 25.3362 28.208 14.6667 41.3182 14.6667C47.6811 14.6695 53.653 17.1465 58.1437 21.6424C62.6343 26.1381 65.1061 32.114 65.1036 38.4693C65.0983 51.5805 54.4325 62.2489 41.3185 62.2543ZM30.5264 55.0532L31.2483 55.4816C34.2836 57.2828 37.763 58.2359 41.3104 58.2373H41.3184C52.2147 58.2373 61.0832 49.3686 61.0875 38.4679C61.0896 33.1854 59.0352 28.2185 55.3028 24.4817C51.5703 20.7449 46.6066 18.6859 41.3262 18.6841C30.4215 18.6841 21.553 27.5519 21.5486 38.4518C21.5471 42.1873 22.5923 45.8253 24.5712 48.9728L25.0413 49.7208L23.0441 57.016L30.5264 55.0532ZM52.4873 43.5902C52.9019 43.7905 53.1818 43.9258 53.3013 44.1253C53.4498 44.3731 53.4498 45.5631 52.9548 46.9515C52.4594 48.3397 50.0851 49.6068 48.9432 49.7773C47.9193 49.9304 46.6236 49.9943 45.1999 49.5418C44.3367 49.268 43.2298 48.9023 41.8119 48.2899C36.2403 45.8841 32.475 40.4841 31.7634 39.4635C31.7136 39.392 31.6787 39.342 31.6593 39.316L31.6545 39.3096C31.3399 38.89 29.2325 36.0782 29.2325 33.1681C29.2325 30.4305 30.5773 28.9956 31.1962 28.3351C31.2387 28.2899 31.2777 28.2483 31.3126 28.2101C31.8573 27.6151 32.5012 27.4664 32.8974 27.4664C33.2936 27.4664 33.6902 27.47 34.0365 27.4874C34.0792 27.4896 34.1236 27.4893 34.1696 27.489C34.5159 27.487 34.9477 27.4845 35.3736 28.5076C35.5375 28.9014 35.7773 29.4851 36.0301 30.1007C36.5415 31.3457 37.1066 32.7214 37.206 32.9205C37.3546 33.218 37.4536 33.5649 37.2556 33.9617C37.2258 34.0212 37.1983 34.0774 37.172 34.131C37.0232 34.4348 36.9138 34.6582 36.6613 34.9531C36.562 35.069 36.4593 35.194 36.3567 35.319C36.1522 35.568 35.9478 35.817 35.7698 35.9943C35.4722 36.2907 35.1625 36.6122 35.5092 37.2072C35.8559 37.8022 37.0486 39.7483 38.8154 41.3243C40.7146 43.0183 42.3653 43.7343 43.202 44.0972C43.3654 44.1681 43.4977 44.2255 43.5948 44.2741C44.1889 44.5717 44.5356 44.5219 44.8823 44.1253C45.229 43.7287 46.368 42.3899 46.7641 41.795C47.1602 41.2002 47.5566 41.2993 48.1012 41.4975C48.6461 41.6961 51.568 43.1337 52.1623 43.4311C52.2783 43.4892 52.3868 43.5416 52.4873 43.5902Z" fill="#FDFDFD"/>
</svg>
