<svg width="31" height="9" viewBox="0 0 31 9" fill="none" xmlns="http://www.w3.org/2000/svg">
<g opacity="0.3">
<circle cx="30" cy="8" r="1" transform="rotate(-180 30 8)" fill="#EE9591"/>
<circle cx="30" cy="5" r="1" transform="rotate(-180 30 5)" fill="#EE9591"/>
<circle cx="30" cy="1" r="1" transform="rotate(-180 30 1)" fill="#EE9591"/>
<circle cx="26" cy="8" r="1" transform="rotate(-180 26 8)" fill="#EE9591"/>
<circle cx="26" cy="5" r="1" transform="rotate(-180 26 5)" fill="#EE9591"/>
<circle cx="26" cy="1" r="1" transform="rotate(-180 26 1)" fill="#EE9591"/>
<circle cx="23" cy="8" r="1" transform="rotate(-180 23 8)" fill="#EE9591"/>
<circle cx="23" cy="5" r="1" transform="rotate(-180 23 5)" fill="#EE9591"/>
<circle cx="23" cy="1" r="1" transform="rotate(-180 23 1)" fill="#EE9591"/>
<circle cx="19" cy="8" r="1" transform="rotate(-180 19 8)" fill="#EE9591"/>
<circle cx="19" cy="5" r="1" transform="rotate(-180 19 5)" fill="#EE9591"/>
<circle cx="19" cy="1" r="1" transform="rotate(-180 19 1)" fill="#EE9591"/>
<circle cx="16" cy="8" r="1" transform="rotate(-180 16 8)" fill="#EE9591"/>
<circle cx="16" cy="5" r="1" transform="rotate(-180 16 5)" fill="#EE9591"/>
<circle cx="16" cy="1" r="1" transform="rotate(-180 16 1)" fill="#EE9591"/>
<circle cx="12" cy="8" r="1" transform="rotate(-180 12 8)" fill="#EE9591"/>
<circle cx="12" cy="5" r="1" transform="rotate(-180 12 5)" fill="#EE9591"/>
<circle cx="12" cy="1" r="1" transform="rotate(-180 12 1)" fill="#EE9591"/>
<circle cx="8" cy="8" r="1" transform="rotate(-180 8 8)" fill="#EE9591"/>
<circle cx="8" cy="5" r="1" transform="rotate(-180 8 5)" fill="#EE9591"/>
<circle cx="8" cy="1" r="1" transform="rotate(-180 8 1)" fill="#EE9591"/>
<circle cx="5" cy="8" r="1" transform="rotate(-180 5 8)" fill="#EE9591"/>
<circle cx="5" cy="5" r="1" transform="rotate(-180 5 5)" fill="#EE9591"/>
<circle cx="5" cy="1" r="1" transform="rotate(-180 5 1)" fill="#EE9591"/>
<circle cx="1" cy="8" r="1" transform="rotate(-180 1 8)" fill="#EE9591"/>
<circle cx="1" cy="5" r="1" transform="rotate(-180 1 5)" fill="#EE9591"/>
<circle cx="1" cy="1" r="1" transform="rotate(-180 1 1)" fill="#EE9591"/>
</g>
</svg>
