<svg xmlns="http://www.w3.org/2000/svg" width="444" height="935" fill="none" xmlns:v="https://vecta.io/nano"><path d="M-305.098 134.759l.011-.011.011-.012 99.389-111.749.014-.015.012-.016c19.705-26.064 65.668-32.551 91.905.074l.03.037.037.031L415.679 470.7c20.886 19.03 27.392 39.319 27.079 56.939-.314 17.638-7.463 32.639-13.955 41.046L137.259 910.503l-.01.011-.009.012c-9.842 13.018-26.262 21.173-43.527 22.795s-35.309-3.291-48.419-16.332l-.016-.016-.017-.015-119.112-98.74-.01-.008-.01-.007c-13.081-9.76-19.65-26.047-20.461-43.212-.811-17.159 4.137-35.118 13.992-48.161L78.674 542.783l.332-.384-.389-.326-377.186-315.965-.011-.009-.011-.009c-13.106-9.777-21.314-26.088-22.946-43.237-1.632-17.143 3.312-35.071 16.439-48.094z" stroke="#3898fe" stroke-opacity=".11"/></svg>