<svg width="50" height="50" viewBox="0 0 50 50" fill="none" xmlns="http://www.w3.org/2000/svg">
<path d="M48.9249 14.3553C52.5279 23.3301 46.7044 37.6139 36.9846 44.1448C27.2649 50.6758 13.6907 49.496 6.52661 43.3442C-0.637522 37.1925 -1.39164 26.0689 1.79242 17.6419C4.97648 9.25698 12.0987 3.56875 22.1955 2.59964C32.2924 1.63054 45.3219 5.38056 48.9249 14.3553Z" fill="#F7C7C4"/>
<path fill-rule="evenodd" clip-rule="evenodd" d="M22 11C21.6901 11 21.3978 11.1436 21.2084 11.3889C21.0191 11.6342 20.9541 11.9534 21.0326 12.2532C21.7884 15.1414 20.5331 17.601 18.8138 20.2893C18.6212 20.5905 18.4216 20.8965 18.2195 21.2062L18.2194 21.2063C17.5504 22.2315 16.8546 23.298 16.2965 24.3704C15.56 25.7858 15 27.3218 15 29C15 31.6522 16.0536 34.1957 17.9289 36.0711C19.8043 37.9464 22.3478 39 25 39C27.6522 39 30.1957 37.9464 32.0711 36.0711C33.9464 34.1957 35 31.6522 35 29C35 23.2496 32.938 18.7699 30.3035 15.7212C27.7115 12.7217 24.4589 11 22 11ZM20.4987 21.3669C21.9956 19.0262 23.5126 16.346 23.2212 13.1822C24.8398 13.6234 26.9287 14.8746 28.7902 17.0288C31.1245 19.7301 33 23.7504 33 29C33 31.1217 32.1571 33.1566 30.6569 34.6569C30.1417 35.172 29.5636 35.6096 28.9406 35.9622C29.6202 34.9703 30 33.6455 30 32C30 29.9172 29.0424 27.7105 27.7819 26.0441C27.1446 25.2017 26.4011 24.4581 25.6089 23.917C24.8261 23.3824 23.9273 23 23 23C22.702 23 22.4195 23.1329 22.2296 23.3625C22.0396 23.592 21.9619 23.8944 22.0177 24.1871C22.1989 25.1384 21.8618 25.9489 21.2792 27.2134L21.2501 27.2766C20.6947 28.4816 20 29.9888 20 32C20 33.6455 20.3798 34.9703 21.0594 35.9622C20.4364 35.6096 19.8583 35.172 19.3431 34.6569C17.8429 33.1566 17 31.1217 17 29C17 27.772 17.4088 26.5657 18.0707 25.2936C18.5789 24.3169 19.1993 23.3657 19.856 22.3589C20.0673 22.0349 20.2824 21.7051 20.4987 21.3669ZM23.1306 27.9747C23.4956 27.1831 23.9038 26.2979 24.0278 25.2957C24.1725 25.3708 24.3239 25.4613 24.4809 25.5686C25.0598 25.9639 25.6523 26.544 26.1869 27.2507C27.2701 28.6827 28 30.4759 28 32C28 33.6197 27.554 34.6002 27.0208 35.1682C26.4878 35.7362 25.7674 36 25 36C24.2326 36 23.5122 35.7362 22.9792 35.1682C22.446 34.6002 22 33.6197 22 32C22 30.4396 22.5307 29.2768 23.0958 28.0502L23.1306 27.9747Z" fill="#888888"/>
</svg>
