<svg width="50" height="50" viewBox="0 0 50 50" fill="none" xmlns="http://www.w3.org/2000/svg">
<path d="M1.07513 14.3553C-2.52788 23.3301 3.29559 37.6139 13.0154 44.1448C22.7351 50.6758 36.3093 49.496 43.4734 43.3442C50.6375 37.1925 51.3916 26.0689 48.2076 17.6419C45.0235 9.25698 37.9013 3.56875 27.8045 2.59964C17.7076 1.63054 4.67815 5.38056 1.07513 14.3553Z" fill="#F7C7C4"/>
<path fill-rule="evenodd" clip-rule="evenodd" d="M40 30C40 31.1046 39.1046 32 38 32H34H16H12C10.8954 32 10 31.1046 10 30V26V20V16C10 14.8954 10.8954 14 12 14H38C39.1046 14 40 14.8954 40 16V20V26V30ZM12 27.127V30H14.873C14.8264 29.8196 14.7671 29.6422 14.6955 29.4693C14.4945 28.984 14.1999 28.543 13.8284 28.1716C13.457 27.8001 13.016 27.5055 12.5307 27.3045C12.3578 27.2329 12.1804 27.1736 12 27.127ZM16.9161 30C16.8411 29.5564 16.7163 29.1215 16.5433 28.7039C16.2417 27.9759 15.7998 27.3145 15.2426 26.7574C14.6855 26.2002 14.0241 25.7583 13.2961 25.4567C12.8785 25.2837 12.4436 25.1589 12 25.0839V20.9161C12.4436 20.8411 12.8785 20.7163 13.2961 20.5433C14.0241 20.2417 14.6855 19.7998 15.2426 19.2426C15.7998 18.6855 16.2417 18.0241 16.5433 17.2961C16.7163 16.8785 16.8411 16.4436 16.9161 16H33.0839C33.2902 17.2203 33.8707 18.3559 34.7574 19.2426C35.6441 20.1293 36.7797 20.7098 38 20.9161V25.0839C36.7797 25.2902 35.6441 25.8707 34.7574 26.7574C33.8707 27.6441 33.2902 28.7797 33.0839 30H16.9161ZM38 30H35.127C35.3042 29.314 35.662 28.6811 36.1716 28.1716C36.6811 27.662 37.314 27.3042 38 27.127V30ZM14.873 16C14.8264 16.1804 14.7671 16.3578 14.6955 16.5307C14.4945 17.016 14.1999 17.457 13.8284 17.8284C13.457 18.1999 13.016 18.4945 12.5307 18.6955C12.3578 18.7672 12.1804 18.8264 12 18.873V16H14.873ZM38 16V18.873C37.314 18.6958 36.6811 18.338 36.1716 17.8284C35.662 17.3189 35.3042 16.686 35.127 16H38ZM14 35.6667C14 35.1144 14.4477 34.6667 15 34.6667H35C35.5523 34.6667 36 35.1144 36 35.6667C36 36.219 35.5523 36.6667 35 36.6667H15C14.4477 36.6667 14 36.219 14 35.6667ZM21 23C21 20.7909 22.7909 19 25 19C27.2091 19 29 20.7909 29 23C29 25.2091 27.2091 27 25 27C22.7909 27 21 25.2091 21 23ZM25 17C21.6863 17 19 19.6863 19 23C19 26.3137 21.6863 29 25 29C28.3137 29 31 26.3137 31 23C31 19.6863 28.3137 17 25 17Z" fill="#888888"/>
</svg>
