<svg width="51" height="50" viewBox="0 0 51 50" fill="none" xmlns="http://www.w3.org/2000/svg">
<path d="M42.0578 4.89006C47.6634 9.20359 51.4463 16.5298 50.5177 22.9658C49.5892 29.3676 43.8805 34.8452 38.2749 39.8434C32.7037 44.8416 27.2014 49.3605 21.1487 49.9425C15.0961 50.4903 8.45882 47.0668 4.57276 42.0686C0.686693 37.0704 -0.482565 30.4632 0.170844 24.5406C0.824253 18.618 3.30033 13.3117 7.1864 8.99818C11.0725 4.71888 16.4029 1.36391 22.7307 0.336882C29.0928 -0.69015 36.4523 0.576523 42.0578 4.89006Z" fill="#F7C7C4"/>
<path fill-rule="evenodd" clip-rule="evenodd" d="M26 11C18.2683 11 12 17.2683 12 25C12 32.7317 18.2683 39 26 39C33.7317 39 40 32.7317 40 25C40 17.2683 33.7317 11 26 11ZM14 25C14 23.9111 14.1451 22.856 14.4169 21.8531C14.6403 22.3344 14.9127 22.7838 15.1864 23.2352C15.4749 23.711 15.7647 24.1891 16 24.7094C16.3081 25.3947 16.8895 25.6194 17.4723 25.8448C17.9973 26.0477 18.5235 26.2511 18.8525 26.7919C19.1805 27.3308 19.1475 27.9459 19.1144 28.5633C19.0853 29.106 19.0561 29.6504 19.2719 30.1463C19.479 30.622 19.8601 30.8678 20.2496 31.1192C20.4901 31.2743 20.7339 31.4316 20.9419 31.6463C21.4176 32.1316 21.4783 32.7696 21.5388 33.4062L21.5388 33.4063C21.5492 33.5149 21.5595 33.6235 21.5719 33.7313C21.6678 34.6009 21.8233 35.463 22.0375 36.3113L22.0429 36.3322C17.3599 34.6969 14 30.2406 14 25ZM15.7609 19.9583C15.6675 19.6993 15.5762 19.4463 15.4654 19.249C16.2794 17.7612 17.3994 16.4647 18.7407 15.4441C18.7168 15.7356 18.7424 16.0295 18.8166 16.3133C18.9063 16.6557 19.065 16.9762 19.2831 17.255C19.4107 17.4192 19.5642 17.5449 19.7119 17.6659C19.9932 17.8963 20.253 18.1092 20.2706 18.5363C20.2969 19.1613 20.1994 19.4813 19.7906 19.9207C19.7067 20.0097 19.6344 20.1165 19.5623 20.2229C19.4827 20.3406 19.4033 20.4578 19.3088 20.55L19.2786 20.5794L19.2786 20.5795C19.1978 20.6582 19.1638 20.6913 19.1232 20.7084C19.0937 20.7209 19.0607 20.7249 19.0038 20.7319C18.9609 20.7372 18.9044 20.7441 18.8256 20.7575C18.2851 20.8488 17.8117 20.9815 17.3061 21.1232L17.3058 21.1233L17.3051 21.1235C17.2053 21.1514 17.1043 21.1797 17.0013 21.2082C16.2832 21.4066 16.0141 20.6604 15.7609 19.9583ZM21.5381 14.7307C21.6414 14.5169 21.5384 14.2151 21.3587 13.9306C21.584 13.836 21.8128 13.7481 22.0449 13.6671C22.1907 13.7688 22.3526 13.8412 22.5456 13.8538C22.6866 13.8633 22.8249 13.8438 22.9603 13.8248C23.2264 13.7874 23.4812 13.7516 23.7231 13.94C23.8294 14.022 23.9279 14.1098 24.025 14.1963C24.2982 14.4396 24.561 14.6738 24.9575 14.7457C25.4775 14.84 26.0281 14.5363 26.1569 14.0044C26.2334 13.6942 26.1621 13.3673 26.0916 13.0438L26.0822 13.0003C28.52 13.0166 30.7853 13.76 32.6721 15.0245C32.5429 14.966 32.3846 14.9667 32.1881 15.0581C31.8087 15.2344 31.2712 15.6831 31.2269 16.1281C31.1762 16.6331 31.9212 16.7044 32.275 16.7044C32.8056 16.7044 33.3444 16.4669 33.1731 15.8531C33.0954 15.5752 32.9882 15.2845 32.812 15.1197C33.2137 15.3972 33.5976 15.6985 33.9617 16.0217C33.9547 16.0287 33.9476 16.0359 33.9406 16.0431C33.8352 16.1529 33.7249 16.256 33.6153 16.3583C33.3505 16.6056 33.0904 16.8485 32.9162 17.1712C32.7425 17.4919 32.5469 17.645 32.195 17.7281C32.1533 17.7379 32.1104 17.7464 32.067 17.755C31.9088 17.7862 31.745 17.8186 31.6175 17.9206C31.165 18.2769 31.4225 19.1325 31.8512 19.39C32.3931 19.7144 33.1969 19.5619 33.6056 19.0987C33.694 18.9984 33.7724 18.8775 33.8517 18.7553C34.0588 18.436 34.2721 18.107 34.6875 18.1075C34.9404 18.107 35.1833 18.206 35.3637 18.3831C35.5438 18.5693 35.5604 18.7469 35.58 18.9559C35.5862 19.0226 35.5927 19.0925 35.605 19.1669C35.6948 19.7152 36.1801 19.4176 36.473 19.1379C36.6855 19.5167 36.8781 19.9083 37.0493 20.3112C37.0256 20.3452 37.0023 20.3795 36.9791 20.4136C36.6855 20.8454 36.4129 21.2464 35.6925 20.7431C35.534 20.6326 35.3963 20.505 35.2606 20.3792C34.9985 20.1363 34.7435 19.8999 34.3594 19.8056C33.9191 19.6976 33.4696 19.78 33.0308 19.8605C32.9619 19.8731 32.8933 19.8857 32.825 19.8975C32.7436 19.9116 32.66 19.9245 32.5753 19.9377L32.5752 19.9377C32.0649 20.0168 31.5132 20.1023 31.1412 20.4738C30.9402 20.6736 30.7846 20.9062 30.6278 21.1404C30.4576 21.3948 30.2861 21.651 30.0537 21.8694C29.1906 22.6819 28.8262 23.5688 29.385 24.7175C29.9225 25.8219 31.0469 26.4213 32.26 26.3425C32.5167 26.3254 32.7755 26.2799 33.0233 26.2364C33.9262 26.0778 34.6826 25.9449 34.6556 27.3038C34.6431 27.9163 34.7712 28.3413 34.9594 28.9106C35.0967 29.324 35.1185 29.7272 35.1411 30.1445V30.1445V30.1445V30.1446V30.1446C35.1472 30.2573 35.1534 30.371 35.1619 30.4863C35.2065 31.0988 35.2923 31.7562 35.4644 32.378C33.2682 35.1911 29.8452 37 26 37C25.3196 37 24.6525 36.9434 24.003 36.8346C24.0044 36.8012 24.0056 36.7682 24.0067 36.736C24.0115 36.6049 24.0158 36.4856 24.0294 36.3957C24.1813 35.4019 24.6788 34.43 25.35 33.6863C25.6244 33.3827 25.9408 33.1196 26.2572 32.8566L26.2572 32.8566C26.7055 32.484 27.1536 32.1115 27.4819 31.6238C28.0275 30.8125 28.1919 29.7182 27.9657 28.7688C27.7323 27.7863 26.7273 27.2621 25.7931 26.7747C25.3936 26.5663 25.0071 26.3647 24.6994 26.1369C24.5458 26.0231 24.3966 25.8932 24.2462 25.7623L24.2462 25.7623L24.2461 25.7623C23.8184 25.3899 23.3814 25.0095 22.8075 24.9688C22.6714 24.959 22.5438 24.9642 22.4183 24.9693C22.2141 24.9776 22.0157 24.9857 21.7963 24.9288C21.6938 24.9024 21.5982 24.8669 21.5046 24.8321L21.5046 24.8321C21.3013 24.7566 21.1071 24.6844 20.87 24.7157C20.5858 24.753 20.3477 24.9074 20.111 25.0608C19.8091 25.2566 19.5096 25.4507 19.12 25.3982C18.4606 25.3094 17.7813 24.5382 17.6313 23.91C17.4388 23.1025 18.0775 22.8407 18.7619 22.7688C19.0475 22.7388 19.3681 22.7063 19.6425 22.8107C19.843 22.8852 19.9848 23.0274 20.1267 23.1697C20.2405 23.2838 20.3544 23.398 20.4988 23.4775C21.1069 23.8107 21.23 23.2782 21.1369 22.7382C21.1218 22.6503 21.1063 22.5681 21.0918 22.4906C20.9726 21.855 20.9134 21.539 21.5563 21.0432L21.6456 20.975C22.1058 20.6246 22.479 20.3405 22.4038 19.6925C22.3881 19.5592 22.3536 19.45 22.3217 19.349C22.2567 19.1431 22.2025 18.9717 22.3413 18.7013C22.4951 18.4003 22.9123 18.1282 23.193 17.9451L23.193 17.9451L23.2094 17.9344C23.4241 17.7944 23.7842 17.6989 24.1592 17.5994C25.0496 17.3634 26.0245 17.1049 25.3406 16.1744C25.055 15.7863 24.5281 15.0925 24.0281 14.9975C23.6032 14.9172 23.3389 15.214 23.0763 15.5089C22.9527 15.6476 22.8294 15.786 22.69 15.8844C22.24 16.2025 21.3638 16.5638 20.9131 16.0719C20.5097 15.6315 20.8211 15.3878 21.1404 15.138C21.301 15.0124 21.4635 14.8852 21.5381 14.7307ZM37.1222 29.5135C37.6882 28.1201 38 26.5965 38 25C38 24.1747 37.9167 23.3688 37.7579 22.5903C37.1728 22.9146 36.3896 23.0434 35.9056 22.9725C35.4108 22.89 34.9432 22.6893 34.5425 22.3875C34.4634 22.3292 34.3785 22.2441 34.2904 22.1559C34.1369 22.0022 33.9738 21.8388 33.815 21.79C33.565 21.7131 32.6925 21.8863 32.5025 22.0369C32.3899 22.1262 32.2946 22.2872 32.202 22.4438L32.202 22.4439C32.1383 22.5515 32.0759 22.657 32.01 22.7356C31.9269 22.8346 31.8233 22.9275 31.7193 23.0207C31.5902 23.1365 31.4605 23.2528 31.3687 23.3819C30.5358 24.5602 32.5931 24.2378 33.1277 24.154L33.1375 24.1525C34.1669 23.9906 35.2444 24.1819 35.9794 24.9788C36.5778 25.6283 36.5942 26.2546 36.613 26.9728C36.6181 27.1683 36.6234 27.3705 36.6406 27.5819C36.664 27.8654 36.7655 28.1411 36.8676 28.4182C36.9566 28.6598 37.046 28.9025 37.0844 29.1525C37.1028 29.2724 37.1143 29.3929 37.1222 29.5135ZM25.8788 30.4138C25.6361 30.8469 25.2009 31.1874 24.7784 31.5179L24.7784 31.5179L24.7784 31.5179C24.548 31.6982 24.3214 31.8755 24.1319 32.0632C24.0954 32.0994 24.0485 32.1579 23.996 32.2236L23.996 32.2236C23.8388 32.42 23.6305 32.6804 23.4938 32.5994C23.4044 32.5464 23.3554 32.2262 23.318 31.9815C23.3007 31.8684 23.2859 31.7714 23.2706 31.7244C23.0224 30.9754 22.5484 30.3215 21.9138 29.8525C21.8458 29.8011 21.7428 29.7442 21.6327 29.6834C21.4261 29.5693 21.1943 29.4413 21.1213 29.3088C21.0307 29.1489 21.0648 28.8314 21.0922 28.5774C21.1025 28.4809 21.1119 28.3936 21.1131 28.3275C21.1158 28.1905 21.093 28.0179 21.0695 27.8396C21.0329 27.5623 20.9944 27.2711 21.0469 27.0775C21.086 26.934 21.0804 26.8805 21.0786 26.8642C21.0782 26.8604 21.0781 26.8586 21.0787 26.8582C21.0793 26.8578 21.0805 26.8585 21.0827 26.8597C21.0951 26.8666 21.139 26.8911 21.2825 26.8594C21.4556 26.8207 22.1706 26.9463 22.3863 26.9913C22.6617 27.0486 22.8377 27.1976 23.0364 27.3659C23.0848 27.4069 23.1346 27.449 23.1875 27.4913C23.8975 28.0607 24.6794 28.5013 25.475 28.9375C26.0913 29.2788 26.2725 29.7107 25.8788 30.4138Z" fill="#888888"/>
</svg>
