<svg width="49" height="50" viewBox="0 0 49 50" fill="none" xmlns="http://www.w3.org/2000/svg">
<path d="M40.5387 8.44741C44.6106 12.6766 47.757 17.1837 48.6208 22.1229C49.4845 27.0313 48.0346 32.3718 45.5052 37.3728C43.0065 42.3738 39.3973 47.066 34.6468 48.9491C29.8963 50.8322 24.0044 49.937 17.9892 48.2082C12.0048 46.4795 5.89696 43.9482 2.9973 39.3794C0.0976309 34.7797 0.406105 28.1426 2.10272 22.3081C3.76848 16.4428 6.85323 11.4109 11.141 7.2126C15.4288 3.04512 20.9505 -0.288862 26.1946 0.01984C31.4387 0.328542 36.436 4.24906 40.5387 8.44741Z" fill="#F7C7C4"/>
<path fill-rule="evenodd" clip-rule="evenodd" d="M18.775 14.2856C14.9932 14.2856 12.0509 17.4394 12.0129 21.1432L12.0129 21.1433C11.9992 22.5054 12.1944 23.7882 12.5594 24.9999H12.0128C11.4749 24.9999 11.0388 25.436 11.0388 25.974C11.0388 26.5119 11.4749 26.948 12.0128 26.948H13.3148C15.3432 31.2058 19.4537 34.5247 23.5794 37.3249C23.9025 37.5448 24.2843 37.6623 24.6752 37.6623C25.066 37.6623 25.4478 37.5448 25.771 37.3249C29.245 34.9667 32.7084 32.2408 34.9269 28.8961H37.3375C37.8755 28.8961 38.3115 28.46 38.3115 27.922C38.3115 27.3841 37.8755 26.948 37.3375 26.948H36.0352C36.8755 25.1842 37.3586 23.2593 37.3375 21.1434L37.3375 21.1432C37.2995 17.4394 34.3571 14.2856 30.5753 14.2856C28.2541 14.2856 26.5466 15.4347 25.4569 16.5165C25.1536 16.8177 24.8932 17.1182 24.6752 17.3953C24.4572 17.1182 24.1968 16.8177 23.8934 16.5165C22.8038 15.4347 21.0963 14.2856 18.775 14.2856ZM33.8384 26.948C34.8389 25.1818 35.4105 23.2692 35.3895 21.1628C35.3616 18.454 33.2172 16.2337 30.5753 16.2337C28.9445 16.2337 27.7019 17.0327 26.8295 17.8989C26.3953 18.33 26.0684 18.7635 25.8509 19.0886C25.7426 19.2504 25.6629 19.3831 25.6119 19.4723C25.5864 19.5168 25.5682 19.5502 25.5573 19.5707L25.5463 19.5915L25.5452 19.5938L23.953 19.8094C23.8951 19.7454 23.8451 19.6732 23.8052 19.5938L23.804 19.5915L23.7981 19.5802L23.7931 19.5707C23.7821 19.5502 23.7639 19.5168 23.7384 19.4723C23.6874 19.3831 23.6077 19.2504 23.4995 19.0886C23.2819 18.7635 22.955 18.33 22.5209 17.8989C21.6484 17.0327 20.4058 16.2337 18.775 16.2337C16.1332 16.2337 13.9887 18.454 13.9608 21.1629L20.597 20.264L20.8819 19.6942C21.0605 19.337 21.439 19.1251 21.8369 19.1594C22.2347 19.1937 22.5713 19.4674 22.6861 19.8499L22.7239 19.9759L23.953 19.8094C23.953 19.8094 23.953 19.8094 23.953 19.8095L22.7239 19.976L24.9024 27.2377L26.7261 23.5903C26.8911 23.2603 27.2283 23.0519 27.5973 23.0519C27.9662 23.0519 28.3035 23.2603 28.4685 23.5903L30.1473 26.948H33.8384ZM20.597 20.2641L13.9608 21.1631C13.9472 22.518 14.1789 23.7928 14.6121 24.9999H18.229L20.597 20.2641ZM15.5116 26.948C17.4023 30.2859 20.825 33.1011 24.6743 35.7137L24.6752 35.7143L24.676 35.7137C27.7529 33.6252 30.5574 31.4071 32.5246 28.8961H29.5453C29.1764 28.8961 28.8391 28.6876 28.6741 28.3576L27.5973 26.2039L25.5464 30.3057C25.3678 30.6628 24.9893 30.8748 24.5914 30.8405C24.1936 30.8062 23.857 30.5325 23.7422 30.15L21.5259 22.7622L19.7022 26.4096C19.5372 26.7396 19.2 26.948 18.831 26.948H15.5116ZM23.953 19.8095L25.5452 19.5938C25.3797 19.9224 25.0432 20.1298 24.6752 20.1298C24.396 20.1298 24.135 20.0105 23.953 19.8095Z" fill="#888888"/>
</svg>
