<svg width="50" height="50" viewBox="0 0 50 50" fill="none" xmlns="http://www.w3.org/2000/svg">
<path d="M1.07513 14.3553C-2.52788 23.3301 3.29559 37.6139 13.0154 44.1448C22.7351 50.6758 36.3093 49.496 43.4734 43.3442C50.6375 37.1925 51.3916 26.0689 48.2076 17.6419C45.0235 9.25698 37.9013 3.56875 27.8045 2.59964C17.7076 1.63054 4.67815 5.38056 1.07513 14.3553Z" fill="#F7C7C4"/>
<path fill-rule="evenodd" clip-rule="evenodd" d="M18 19C18 15.134 21.134 12 25 12C28.866 12 32 15.134 32 19C32 20.2144 31.6907 21.3566 31.1467 22.3521C31.0688 22.4438 31.0089 22.548 30.9687 22.659C29.9649 24.293 28.3089 25.4833 26.3632 25.8673C26.3425 25.8707 26.3219 25.8746 26.3014 25.8792C25.8797 25.9585 25.4447 26 25 26C21.134 26 18 22.866 18 19ZM34 19C34 20.4416 33.6611 21.804 33.0585 23.012L38.8749 33.5156C39.0468 33.8261 39.0413 34.2044 38.8603 34.5098C38.6794 34.8151 38.3501 35.0017 37.9952 35L32.5662 34.9737L29.8588 39.5123C29.6682 39.8318 29.316 40.0191 28.9445 39.9984C28.5729 39.9778 28.2436 39.7525 28.0897 39.4138L25.0001 32.6167L21.9104 39.4138C21.7564 39.7525 21.4271 39.9778 21.0556 39.9984C20.6841 40.0191 20.3318 39.8318 20.1412 39.5123L17.4338 34.9737L12.0048 35C11.6497 35.0017 11.3202 34.8149 11.1394 34.5092C10.9585 34.2035 10.9533 33.8248 11.1258 33.5144L16.9503 23.0297C16.3423 21.8173 16 20.4486 16 19C16 14.0294 20.0294 10 25 10C29.9706 10 34 14.0294 34 19ZM27.2245 27.723C29.0342 27.2629 30.6249 26.2544 31.8095 24.885L36.2986 32.9917L32.5763 32.9737H32.5761C32.2283 32.972 31.8861 33.061 31.5832 33.232C31.2802 33.403 31.0271 33.65 30.8488 33.9487L30.8487 33.9489L29.1199 36.8471L26.0985 30.2001L27.2245 27.723ZM24.9019 27.9995L24.0954 29.7738C24.0916 29.7818 24.088 29.7898 24.0844 29.7979L20.8801 36.8471L19.1512 33.9487C18.9729 33.65 18.7198 33.403 18.4168 33.232C18.1139 33.061 17.7717 32.972 17.4239 32.9737L17.4237 32.9737L13.7041 32.9917L18.2009 24.897C19.8311 26.775 22.2265 27.9709 24.9019 27.9995ZM22 19C22 17.3431 23.3431 16 25 16C26.6569 16 28 17.3431 28 19C28 20.6569 26.6569 22 25 22C23.3431 22 22 20.6569 22 19ZM25 14C22.2386 14 20 16.2386 20 19C20 21.7614 22.2386 24 25 24C27.7614 24 30 21.7614 30 19C30 16.2386 27.7614 14 25 14Z" fill="#888888"/>
</svg>
