<svg width="46" height="46" viewBox="0 0 46 46" fill="none" xmlns="http://www.w3.org/2000/svg">
<path d="M0 23C0 10.2975 10.2975 0 23 0C35.7025 0 46 10.2975 46 23C46 35.7025 35.7025 46 23 46C10.2975 46 0 35.7025 0 23Z" fill="#F7F7F7"/>
<mask id="mask0_385_2869" style="mask-type:alpha" maskUnits="userSpaceOnUse" x="0" y="0" width="46" height="46">
<path fill-rule="evenodd" clip-rule="evenodd" d="M0 23C0 10.2975 10.2975 0 23 0C35.7025 0 46 10.2975 46 23C46 35.7025 35.7025 46 23 46C10.2975 46 0 35.7025 0 23Z" fill="white"/>
</mask>
<g mask="url(#mask0_385_2869)">
<path fill-rule="evenodd" clip-rule="evenodd" d="M23.0011 10.7334C19.6696 10.7334 19.2515 10.748 17.9431 10.8075C16.6372 10.8673 15.7458 11.0741 14.9658 11.3774C14.159 11.6907 13.4746 12.1098 12.7928 12.7919C12.1105 13.4737 11.6914 14.1581 11.377 14.9647C11.0729 15.7449 10.8659 16.6365 10.8071 17.9419C10.7486 19.2504 10.7333 19.6687 10.7333 23.0002C10.7333 26.3317 10.7481 26.7485 10.8074 28.0569C10.8674 29.3628 11.0742 30.2542 11.3773 31.0342C11.6909 31.841 12.11 32.5254 12.7921 33.2072C13.4736 33.8895 14.158 34.3097 14.9643 34.623C15.7448 34.9263 16.6364 35.1331 17.9421 35.1929C19.2505 35.2524 19.6684 35.267 22.9996 35.267C26.3313 35.267 26.7481 35.2524 28.0565 35.1929C29.3624 35.1331 30.2549 34.9263 31.0353 34.623C31.8419 34.3097 32.5252 33.8895 33.2068 33.2072C33.8891 32.5254 34.3083 31.841 34.6226 31.0344C34.9242 30.2542 35.1312 29.3626 35.1925 28.0572C35.2513 26.7487 35.2666 26.3317 35.2666 23.0002C35.2666 19.6687 35.2513 19.2506 35.1925 17.9422C35.1312 16.6363 34.9242 15.7449 34.6226 14.9649C34.3083 14.1581 33.8891 13.4737 33.2068 12.7919C32.5245 12.1096 31.8421 11.6905 31.0346 11.3774C30.2526 11.0741 29.3607 10.8673 28.0548 10.8075C26.7463 10.748 26.3297 10.7334 22.9973 10.7334H23.0011ZM22.5922 12.9439H22.5923L23.0011 12.944C26.2763 12.944 26.6645 12.9557 27.9579 13.0145C29.1539 13.0692 29.803 13.269 30.2355 13.4369C30.8079 13.6593 31.216 13.9251 31.6451 14.3544C32.0744 14.7837 32.3402 15.1926 32.5631 15.7651C32.731 16.197 32.9311 16.8461 32.9855 18.0421C33.0443 19.3352 33.0571 19.7237 33.0571 22.9974C33.0571 26.2711 33.0443 26.6595 32.9855 27.9527C32.9308 29.1487 32.731 29.7978 32.5631 30.2297C32.3407 30.8021 32.0744 31.2098 31.6451 31.6388C31.2158 32.0682 30.8082 32.334 30.2355 32.5563C29.8036 32.725 29.1539 32.9243 27.9579 32.979C26.6648 33.0378 26.2763 33.0505 23.0011 33.0505C19.7256 33.0505 19.3374 33.0378 18.0443 32.979C16.8483 32.9238 16.1992 32.7239 15.7665 32.556C15.1941 32.3337 14.7852 32.0679 14.3558 31.6386C13.9265 31.2092 13.6607 30.8014 13.4379 30.2287C13.27 29.7968 13.0699 29.1477 13.0154 27.9516C12.9566 26.6585 12.9449 26.2701 12.9449 22.9943C12.9449 19.7186 12.9566 19.3322 13.0154 18.039C13.0701 16.843 13.27 16.1939 13.4379 15.7615C13.6602 15.1891 13.9265 14.7802 14.3558 14.3508C14.7852 13.9215 15.1941 13.6557 15.7665 13.4329C16.1989 13.2642 16.8483 13.0649 18.0443 13.0099C19.1759 12.9588 19.6145 12.9435 21.9007 12.9409V12.944C22.1143 12.9436 22.344 12.9437 22.592 12.9439H22.5921H22.5922ZM28.077 16.4523C28.077 15.6394 28.7363 14.9808 29.549 14.9808V14.9803C30.3617 14.9803 31.021 15.6396 31.021 16.4523C31.021 17.265 30.3617 17.9243 29.549 17.9243C28.7363 17.9243 28.077 17.265 28.077 16.4523ZM23.0008 16.7007C19.522 16.7008 16.7016 19.5214 16.7016 23.0002C16.7016 26.4791 19.5222 29.2984 23.0011 29.2984C26.48 29.2984 29.2996 26.4791 29.2996 23.0002C29.2996 19.5213 26.4797 16.7007 23.0008 16.7007ZM27.09 23.0002C27.09 20.7418 25.2592 18.9113 23.0011 18.9113C20.7427 18.9113 18.9122 20.7418 18.9122 23.0002C18.9122 25.2583 20.7427 27.0891 23.0011 27.0891C25.2592 27.0891 27.09 25.2583 27.09 23.0002Z" fill="black"/>
</g>
</svg>
