<svg width="46" height="46" viewBox="0 0 46 46" fill="none" xmlns="http://www.w3.org/2000/svg">
<path d="M0 23C0 10.2975 10.2975 0 23 0C35.7025 0 46 10.2975 46 23C46 35.7025 35.7025 46 23 46C10.2975 46 0 35.7025 0 23Z" fill="#55ACEE"/>
<path d="M22.3112 18.6947L22.3594 19.4906L21.555 19.3931C18.627 19.0196 16.069 17.7527 13.8971 15.625L12.8353 14.5693L12.5618 15.3489C11.9826 17.0868 12.3527 18.9221 13.5593 20.1565C14.2028 20.8387 14.058 20.9361 12.9479 20.5301C12.5618 20.4001 12.224 20.3027 12.1918 20.3514C12.0792 20.4651 12.4653 21.9431 12.771 22.5278C13.1892 23.3399 14.0419 24.1358 14.975 24.6068L15.7633 24.9803L14.8302 24.9966C13.9293 24.9966 13.8971 25.0128 13.9936 25.3539C14.3154 26.4096 15.5864 27.5303 17.0021 28.0176L17.9996 28.3587L17.1308 28.8784C15.8438 29.6255 14.3315 30.0478 12.8192 30.0803C12.0953 30.0965 11.5 30.1615 11.5 30.2102C11.5 30.3726 13.4627 31.2822 14.605 31.6395C18.0317 32.6952 22.102 32.2405 25.1587 30.4376C27.3306 29.1545 29.5025 26.6045 30.516 24.1358C31.063 22.8202 31.61 20.4164 31.61 19.2632C31.61 18.5161 31.6583 18.4186 32.5592 17.5253C33.0901 17.0056 33.5889 16.4371 33.6854 16.2747C33.8463 15.9661 33.8302 15.9661 33.0097 16.2422C31.6422 16.7295 31.4492 16.6645 32.1248 15.9336C32.6236 15.4139 33.2188 14.4718 33.2188 14.1957C33.2188 14.147 32.9775 14.2282 32.704 14.3744C32.4144 14.5368 31.7709 14.7804 31.2883 14.9266L30.4195 15.2027L29.6312 14.6668C29.1968 14.3744 28.5855 14.0496 28.2637 13.9521C27.4432 13.7247 26.1884 13.7572 25.4483 14.0171C23.4373 14.748 22.1664 16.632 22.3112 18.6947Z" fill="white"/>
</svg>
